<?xml version="1.0" encoding="utf-8"?>
<!-- Generator: Adobe Illustrator 27.5.0, SVG Export Plug-In . SVG Version: 6.00 Build 0)  -->
<svg version="1.1" id="Layer_1" xmlns="http://www.w3.org/2000/svg" xmlns:xlink="http://www.w3.org/1999/xlink" x="0px" y="0px"
	 viewBox="0 0 25 17" style="enable-background:new 0 0 25 17;" xml:space="preserve">
<g>
	<g>
		<path style="fill:#FFFFFF;" d="M24.554,17c-0.273,0-0.546,0-0.819,0"/>
		<line style="fill:#FFFFFF;" x1="23.735" y1="17" x2="21.684" y2="17"/>
		<line style="fill:#FFFFFF;" x1="21.684" y1="17" x2="19.632" y2="17"/>
		<line style="fill:#FFFFFF;" x1="19.632" y1="17" x2="17.581" y2="17"/>
		<line style="fill:#FFFFFF;" x1="17.581" y1="17" x2="15.529" y2="17"/>
		<line style="fill:#FFFFFF;" x1="15.529" y1="17" x2="13.478" y2="17"/>
		<line style="fill:#FFFFFF;" x1="13.478" y1="17" x2="11.427" y2="17"/>
		<line style="fill:#FFFFFF;" x1="11.427" y1="17" x2="9.375" y2="17"/>
		<line style="fill:#FFFFFF;" x1="9.375" y1="17" x2="7.324" y2="17"/>
		<line style="fill:#FFFFFF;" x1="7.324" y1="17" x2="5.272" y2="17"/>
		<line style="fill:#FFFFFF;" x1="5.272" y1="17" x2="3.221" y2="17"/>
		<line style="fill:#FFFFFF;" x1="3.221" y1="17" x2="1.17" y2="17"/>
		<path style="fill:#FFFFFF;" d="M1.17,17c-0.241,0-0.481,0-0.722,0"/>
		<polygon style="fill:#FFFFFF;" points="25,16.056 24.541,16.056 23.735,17 25,17 		"/>
		<polygon style="fill:#FFFFFF;" points="21.684,17 23.735,17 24.541,16.056 22.49,16.056 		"/>
		<polygon style="fill:#FFFFFF;" points="19.632,17 21.684,17 22.49,16.056 20.438,16.056 		"/>
		<polygon style="fill:#FFFFFF;" points="17.581,17 19.632,17 20.438,16.056 18.387,16.056 		"/>
		<polygon style="fill:#FFFFFF;" points="15.529,17 17.581,17 18.387,16.056 16.336,16.056 		"/>
		<polygon style="fill:#FFFFFF;" points="13.478,17 15.529,17 16.336,16.056 14.284,16.056 		"/>
		<polygon style="fill:#FFFFFF;" points="11.427,17 13.478,17 14.284,16.056 12.233,16.056 		"/>
		<polygon style="fill:#FFFFFF;" points="9.375,17 11.427,17 12.233,16.056 10.182,16.056 		"/>
		<polygon style="fill:#FFFFFF;" points="7.324,17 9.375,17 10.182,16.056 8.13,16.056 		"/>
		<polygon style="fill:#FFFFFF;" points="5.272,17 7.324,17 8.13,16.056 6.079,16.056 		"/>
		<polygon style="fill:#FFFFFF;" points="3.221,17 5.272,17 6.079,16.056 4.027,16.056 		"/>
		<polygon style="fill:#FFFFFF;" points="1.17,17 3.221,17 4.027,16.056 1.976,16.056 		"/>
		<polygon style="fill:#FFFFFF;" points="0,16.056 0,17 1.17,17 1.976,16.056 		"/>
		<polygon style="fill:#FFFFFF;" points="25,15.518 24.541,16.056 25,16.056 		"/>
		<polygon style="fill:#FFFFFF;" points="25,15.111 23.296,15.111 22.49,16.056 24.541,16.056 25,15.518 		"/>
		<polygon style="fill:#FFFFFF;" points="20.438,16.056 22.49,16.056 23.296,15.111 21.245,15.111 		"/>
		<polygon style="fill:#FFFFFF;" points="18.387,16.056 20.438,16.056 21.245,15.111 19.194,15.111 		"/>
		<polygon style="fill:#FFFFFF;" points="16.336,16.056 18.387,16.056 19.194,15.111 17.142,15.111 		"/>
		<polygon style="fill:#FFFFFF;" points="14.284,16.056 16.336,16.056 17.142,15.111 15.091,15.111 		"/>
		<polygon style="fill:#FFFFFF;" points="12.233,16.056 14.284,16.056 15.091,15.111 13.039,15.111 		"/>
		<polygon style="fill:#FFFFFF;" points="10.182,16.056 12.233,16.056 13.039,15.111 10.988,15.111 		"/>
		<polygon style="fill:#FFFFFF;" points="8.13,16.056 10.182,16.056 10.988,15.111 8.937,15.111 		"/>
		<polygon style="fill:#FFFFFF;" points="6.079,16.056 8.13,16.056 8.937,15.111 6.885,15.111 		"/>
		<polygon style="fill:#FFFFFF;" points="4.027,16.056 6.079,16.056 6.885,15.111 4.834,15.111 		"/>
		<polygon style="fill:#FFFFFF;" points="1.976,16.056 4.027,16.056 4.834,15.111 2.782,15.111 		"/>
		<polygon style="fill:#FFFFFF;" points="0.731,15.111 0,15.967 0,16.056 1.976,16.056 2.782,15.111 		"/>
		<polygon style="fill:#FFFFFF;" points="0,15.111 0,15.967 0.731,15.111 		"/>
		<polygon style="fill:#FFFFFF;" points="25,14.167 24.103,14.167 23.296,15.111 25,15.111 		"/>
		<polygon style="fill:#FFFFFF;" points="21.245,15.111 23.296,15.111 24.103,14.167 22.051,14.167 		"/>
		<polygon style="fill:#F2FFFF;" points="19.194,15.111 21.245,15.111 22.051,14.167 20,14.167 		"/>
		<polygon style="fill:#FFFFFF;" points="17.142,15.111 19.194,15.111 20,14.167 17.948,14.167 		"/>
		<polygon style="fill:#FFFFFF;" points="15.091,15.111 17.142,15.111 17.948,14.167 15.897,14.167 		"/>
		<polygon style="fill:#EAFFFF;" points="13.039,15.111 15.091,15.111 15.897,14.167 13.846,14.167 		"/>
		<polygon style="fill:#FFFFFF;" points="10.988,15.111 13.039,15.111 13.846,14.167 11.794,14.167 		"/>
		<polygon style="fill:#FFFFFF;" points="8.937,15.111 10.988,15.111 11.794,14.167 9.743,14.167 		"/>
		<polygon style="fill:#FFFFFF;" points="6.885,15.111 8.937,15.111 9.743,14.167 7.692,14.167 		"/>
		<polygon style="fill:#FFFFFF;" points="4.834,15.111 6.885,15.111 7.692,14.167 5.64,14.167 		"/>
		<polygon style="fill:#FFFFFF;" points="2.782,15.111 4.834,15.111 5.64,14.167 3.589,14.167 		"/>
		<polygon style="fill:#FFFFFF;" points="0.731,15.111 2.782,15.111 3.589,14.167 1.537,14.167 		"/>
		<polygon style="fill:#FFFFFF;" points="0,14.167 0,15.111 0.731,15.111 1.537,14.167 		"/>
		<polygon style="fill:#EDFFFF;" points="25,13.222 24.909,13.222 24.103,14.167 25,14.167 		"/>
		<polygon style="fill:#F4FFFF;" points="22.051,14.167 24.103,14.167 24.909,13.222 22.858,13.222 		"/>
		<polygon style="fill:#B8F2FF;" points="20,14.167 22.051,14.167 22.858,13.222 20.806,13.222 		"/>
		<polygon style="fill:#E5FFFF;" points="17.948,14.167 20,14.167 20.806,13.222 18.755,13.222 		"/>
		<polygon style="fill:#F2FFFF;" points="15.897,14.167 17.948,14.167 18.755,13.222 16.703,13.222 		"/>
		<polygon style="fill:#AEE7FF;" points="13.846,14.167 15.897,14.167 16.703,13.222 14.652,13.222 		"/>
		<polygon style="fill:#C6F2FF;" points="11.794,14.167 13.846,14.167 14.652,13.222 12.601,13.222 		"/>
		<polygon style="fill:#D4F7FF;" points="9.743,14.167 11.794,14.167 12.601,13.222 10.549,13.222 		"/>
		<polygon style="fill:#CBF7FF;" points="7.692,14.167 9.743,14.167 10.549,13.222 8.498,13.222 		"/>
		<polygon style="fill:#F7FFFF;" points="5.64,14.167 7.692,14.167 8.498,13.222 6.447,13.222 		"/>
		<polygon style="fill:#E7FFFF;" points="3.589,14.167 5.64,14.167 6.447,13.222 4.395,13.222 		"/>
		<polygon style="fill:#EFFFFF;" points="1.537,14.167 3.589,14.167 4.395,13.222 2.344,13.222 		"/>
		<polygon style="fill:#FFFFFF;" points="0.292,13.222 0,13.565 0,14.167 1.537,14.167 2.344,13.222 		"/>
		<polygon style="fill:#FFFFFF;" points="0,13.222 0,13.565 0.292,13.222 		"/>
		<polygon style="fill:#B4EFFF;" points="25,13.116 24.909,13.222 25,13.222 		"/>
		<polygon style="fill:#CBF9FF;" points="25,12.278 23.664,12.278 22.858,13.222 24.909,13.222 25,13.116 		"/>
		<polygon style="fill:#CDF7FF;" points="20.806,13.222 22.858,13.222 23.664,12.278 21.613,12.278 		"/>
		<polygon style="fill:#99DEFC;" points="18.755,13.222 20.806,13.222 21.613,12.278 19.561,12.278 		"/>
		<polygon style="fill:#A9EAFF;" points="16.703,13.222 18.755,13.222 19.561,12.278 17.51,12.278 		"/>
		<polygon style="fill:#A9E3FF;" points="14.652,13.222 16.703,13.222 17.51,12.278 15.458,12.278 		"/>
		<polygon style="fill:#70BDE7;" points="12.601,13.222 14.652,13.222 15.458,12.278 13.407,12.278 		"/>
		<polygon style="fill:#65BBE0;" points="10.549,13.222 12.601,13.222 13.407,12.278 11.356,12.278 		"/>
		<polygon style="fill:#A4E0FC;" points="8.498,13.222 10.549,13.222 11.356,12.278 9.304,12.278 		"/>
		<polygon style="fill:#AEEAFF;" points="6.447,13.222 8.498,13.222 9.304,12.278 7.253,12.278 		"/>
		<polygon style="fill:#C8F7FF;" points="4.395,13.222 6.447,13.222 7.253,12.278 5.202,12.278 		"/>
		<polygon style="fill:#CDF7FF;" points="2.344,13.222 4.395,13.222 5.202,12.278 3.15,12.278 		"/>
		<polygon style="fill:#CBF9FF;" points="0.292,13.222 2.344,13.222 3.15,12.278 1.099,12.278 		"/>
		<polygon style="fill:#EAFFFF;" points="0,12.278 0,13.222 0.292,13.222 1.099,12.278 		"/>
		<polygon style="fill:#E3FFFF;" points="25,11.333 24.47,11.333 23.664,12.278 25,12.278 		"/>
		<polygon style="fill:#FCFFFF;" points="21.613,12.278 23.664,12.278 24.47,11.333 22.419,11.333 		"/>
		<polygon style="fill:#E0FFFF;" points="19.561,12.278 21.613,12.278 22.419,11.333 20.368,11.333 		"/>
		<polygon style="fill:#D2FCFF;" points="17.51,12.278 19.561,12.278 20.368,11.333 18.316,11.333 		"/>
		<polygon style="fill:#6ABFEA;" points="15.458,12.278 17.51,12.278 18.316,11.333 16.265,11.333 		"/>
		<polygon style="fill:#60B6E3;" points="13.407,12.278 15.458,12.278 16.265,11.333 14.213,11.333 		"/>
		<polygon style="fill:#A0E0FC;" points="11.356,12.278 13.407,12.278 14.213,11.333 12.162,11.333 		"/>
		<polygon style="fill:#84D4F4;" points="9.304,12.278 11.356,12.278 12.162,11.333 10.111,11.333 		"/>
		<polygon style="fill:#96DBF9;" points="7.253,12.278 9.304,12.278 10.111,11.333 8.059,11.333 		"/>
		<polygon style="fill:#A2E3FF;" points="5.202,12.278 7.253,12.278 8.059,11.333 6.008,11.333 		"/>
		<polygon style="fill:#CBF7FF;" points="3.15,12.278 5.202,12.278 6.008,11.333 3.957,11.333 		"/>
		<polygon style="fill:#EAFFFF;" points="1.099,12.278 3.15,12.278 3.957,11.333 1.905,11.333 		"/>
		<polygon style="fill:#C3F4FF;" points="0,11.333 0,12.278 1.099,12.278 1.905,11.333 		"/>
		<polygon style="fill:#AEEDFF;" points="25,10.713 24.47,11.333 25,11.333 		"/>
		<polygon style="fill:#B8F2FF;" points="25,10.389 23.225,10.389 22.419,11.333 24.47,11.333 25,10.713 		"/>
		<polygon style="fill:#B2EFFF;" points="20.368,11.333 22.419,11.333 23.225,10.389 21.174,10.389 		"/>
		<polygon style="fill:#CBF9FF;" points="18.316,11.333 20.368,11.333 21.174,10.389 19.123,10.389 		"/>
		<polygon style="fill:#2B8BC6;" points="16.265,11.333 18.316,11.333 19.123,10.389 17.071,10.389 		"/>
		<polygon style="fill:#54B4E3;" points="14.213,11.333 16.265,11.333 17.071,10.389 15.02,10.389 		"/>
		<polygon style="fill:#47A4D6;" points="12.162,11.333 14.213,11.333 15.02,10.389 12.968,10.389 		"/>
		<polygon style="fill:#42A6D6;" points="10.111,11.333 12.162,11.333 12.968,10.389 10.917,10.389 		"/>
		<polygon style="fill:#5EB8E7;" points="8.059,11.333 10.111,11.333 10.917,10.389 8.866,10.389 		"/>
		<polygon style="fill:#50ABDB;" points="6.008,11.333 8.059,11.333 8.866,10.389 6.814,10.389 		"/>
		<polygon style="fill:#96E0F9;" points="3.957,11.333 6.008,11.333 6.814,10.389 4.763,10.389 		"/>
		<polygon style="fill:#B4EFFF;" points="1.905,11.333 3.957,11.333 4.763,10.389 2.712,10.389 		"/>
		<polygon style="fill:#8BD8FC;" points="0.66,10.389 0,11.162 0,11.333 1.905,11.333 2.712,10.389 		"/>
		<polygon style="fill:#A2E5FF;" points="0,10.389 0,11.162 0.66,10.389 		"/>
		<polygon style="fill:#C8F7FF;" points="25,9.444 24.032,9.444 23.225,10.389 25,10.389 		"/>
		<polygon style="fill:#F2FFFF;" points="21.174,10.389 23.225,10.389 24.032,9.444 21.98,9.444 		"/>
		<polygon style="fill:#B6F2FF;" points="19.123,10.389 21.174,10.389 21.98,9.444 19.929,9.444 		"/>
		<polygon style="fill:#A9EDFF;" points="17.071,10.389 19.123,10.389 19.929,9.444 17.878,9.444 		"/>
		<polygon style="fill:#3CA0D4;" points="15.02,10.389 17.071,10.389 17.878,9.444 15.826,9.444 		"/>
		<polygon style="fill:#5AB8E3;" points="12.968,10.389 15.02,10.389 15.826,9.444 13.775,9.444 		"/>
		<polygon style="fill:#8CD8FC;" points="10.917,10.389 12.968,10.389 13.775,9.444 11.723,9.444 		"/>
		<polygon style="fill:#92E3F9;" points="8.866,10.389 10.917,10.389 11.723,9.444 9.672,9.444 		"/>
		<polygon style="fill:#65C2ED;" points="6.814,10.389 8.866,10.389 9.672,9.444 7.621,9.444 		"/>
		<polygon style="fill:#97E0FC;" points="4.763,10.389 6.814,10.389 7.621,9.444 5.569,9.444 		"/>
		<polygon style="fill:#87D6F2;" points="2.712,10.389 4.763,10.389 5.569,9.444 3.518,9.444 		"/>
		<polygon style="fill:#A6EAFF;" points="0.66,10.389 2.712,10.389 3.518,9.444 1.467,9.444 		"/>
		<polygon style="fill:#B4F2FF;" points="0,9.444 0,10.389 0.66,10.389 1.467,9.444 		"/>
		<polygon style="fill:#8BD8F4;" points="25,8.5 24.838,8.5 24.032,9.444 25,9.444 		"/>
		<polygon style="fill:#C6F9FF;" points="21.98,9.444 24.032,9.444 24.838,8.5 22.787,8.5 		"/>
		<polygon style="fill:#EDFFFF;" points="19.929,9.444 21.98,9.444 22.787,8.5 20.735,8.5 		"/>
		<polygon style="fill:#96E7FF;" points="17.878,9.444 19.929,9.444 20.735,8.5 18.684,8.5 		"/>
		<polygon style="fill:#1C79BB;" points="15.826,9.444 17.878,9.444 18.684,8.5 16.632,8.5 		"/>
		<polygon style="fill:#2787C3;" points="13.775,9.444 15.826,9.444 16.632,8.5 14.581,8.5 		"/>
		<polygon style="fill:#3FA0D2;" points="11.723,9.444 13.775,9.444 14.581,8.5 12.53,8.5 		"/>
		<polygon style="fill:#7FD6F4;" points="9.672,9.444 11.723,9.444 12.53,8.5 10.478,8.5 		"/>
		<polygon style="fill:#63BFE7;" points="7.621,9.444 9.672,9.444 10.478,8.5 8.427,8.5 		"/>
		<polygon style="fill:#52B6E3;" points="5.569,9.444 7.621,9.444 8.427,8.5 6.376,8.5 		"/>
		<polygon style="fill:#84D8F7;" points="3.518,9.444 5.569,9.444 6.376,8.5 4.324,8.5 		"/>
		<polygon style="fill:#54B6E5;" points="1.467,9.444 3.518,9.444 4.324,8.5 2.273,8.5 		"/>
		<polygon style="fill:#97E5FC;" points="0.222,8.5 0,8.759 0,9.444 1.467,9.444 2.273,8.5 		"/>
		<polygon style="fill:#B0EFFF;" points="0,8.5 0,8.759 0.222,8.5 		"/>
		<polygon style="fill:#44ABDE;" points="25,8.31 24.838,8.5 25,8.5 		"/>
		<polygon style="fill:#88DEFC;" points="25,7.556 23.593,7.556 22.787,8.5 24.838,8.5 25,8.31 		"/>
		<polygon style="fill:#A0EDFF;" points="20.735,8.5 22.787,8.5 23.593,7.556 21.542,7.556 		"/>
		<polygon style="fill:#52B6E5;" points="18.684,8.5 20.735,8.5 21.542,7.556 19.49,7.556 		"/>
		<polygon style="fill:#1C83C3;" points="16.632,8.5 18.684,8.5 19.49,7.556 17.439,7.556 		"/>
		<polygon style="fill:#00529B;" points="14.581,8.5 16.632,8.5 17.439,7.556 15.387,7.556 		"/>
		<polygon style="fill:#2284C3;" points="12.53,8.5 14.581,8.5 15.387,7.556 13.336,7.556 		"/>
		<polygon style="fill:#2284C3;" points="10.478,8.5 12.53,8.5 13.336,7.556 11.285,7.556 		"/>
		<polygon style="fill:#2787C3;" points="8.427,8.5 10.478,8.5 11.285,7.556 9.233,7.556 		"/>
		<polygon style="fill:#2284C6;" points="6.376,8.5 8.427,8.5 9.233,7.556 7.182,7.556 		"/>
		<polygon style="fill:#3CA6D8;" points="4.324,8.5 6.376,8.5 7.182,7.556 5.131,7.556 		"/>
		<polygon style="fill:#44B2E3;" points="2.273,8.5 4.324,8.5 5.131,7.556 3.079,7.556 		"/>
		<polygon style="fill:#42ABE0;" points="0.222,8.5 2.273,8.5 3.079,7.556 1.028,7.556 		"/>
		<polygon style="fill:#79D6F7;" points="0,7.556 0,8.5 0.222,8.5 1.028,7.556 		"/>
		<polygon style="fill:#65CDF7;" points="25,6.611 24.399,6.611 23.593,7.556 25,7.556 		"/>
		<polygon style="fill:#76D6F9;" points="21.542,7.556 23.593,7.556 24.399,6.611 22.348,6.611 		"/>
		<polygon style="fill:#3FA9E0;" points="19.49,7.556 21.542,7.556 22.348,6.611 20.297,6.611 		"/>
		<polygon style="fill:#1473B6;" points="17.439,7.556 19.49,7.556 20.297,6.611 18.245,6.611 		"/>
		<polygon style="fill:#2B99D4;" points="15.387,7.556 17.439,7.556 18.245,6.611 16.194,6.611 		"/>
		<polygon style="fill:#2F9DD4;" points="13.336,7.556 15.387,7.556 16.194,6.611 14.142,6.611 		"/>
		<polygon style="fill:#2283C2;" points="11.285,7.556 13.336,7.556 14.142,6.611 12.091,6.611 		"/>
		<polygon style="fill:#56B8E5;" points="9.233,7.556 11.285,7.556 12.091,6.611 10.04,6.611 		"/>
		<polygon style="fill:#1473BB;" points="7.182,7.556 9.233,7.556 10.04,6.611 7.988,6.611 		"/>
		<polygon style="fill:#228FCF;" points="5.131,7.556 7.182,7.556 7.988,6.611 5.937,6.611 		"/>
		<polygon style="fill:#2B9DD6;" points="3.079,7.556 5.131,7.556 5.937,6.611 3.886,6.611 		"/>
		<polygon style="fill:#44B6E7;" points="1.028,7.556 3.079,7.556 3.886,6.611 1.834,6.611 		"/>
		<polygon style="fill:#6ACFF4;" points="0,6.611 0,7.556 1.028,7.556 1.834,6.611 		"/>
		<polygon style="fill:#2BA2D8;" points="25,5.908 24.399,6.611 25,6.611 		"/>
		<polygon style="fill:#5ECBF4;" points="25,5.667 23.154,5.667 22.348,6.611 24.399,6.611 25,5.908 		"/>
		<polygon style="fill:#33ABE0;" points="20.297,6.611 22.348,6.611 23.154,5.667 21.103,5.667 		"/>
		<polygon style="fill:#004E99;" points="18.245,6.611 20.297,6.611 21.103,5.667 19.052,5.667 		"/>
		<polygon style="fill:#005AA6;" points="16.194,6.611 18.245,6.611 19.052,5.667 17,5.667 		"/>
		<polygon style="fill:#002B6D;" points="14.142,6.611 16.194,6.611 17,5.667 14.949,5.667 		"/>
		<polygon style="fill:#278ECB;" points="12.091,6.611 14.142,6.611 14.949,5.667 12.898,5.667 		"/>
		<polygon style="fill:#227EBD;" points="10.04,6.611 12.091,6.611 12.898,5.667 10.846,5.667 		"/>
		<polygon style="fill:#1470B6;" points="7.988,6.611 10.04,6.611 10.846,5.667 8.795,5.667 		"/>
		<polygon style="fill:#006DB8;" points="5.937,6.611 7.988,6.611 8.795,5.667 6.743,5.667 		"/>
		<polygon style="fill:#0066B0;" points="3.886,6.611 5.937,6.611 6.743,5.667 4.692,5.667 		"/>
		<polygon style="fill:#1C92CD;" points="1.834,6.611 3.886,6.611 4.692,5.667 2.641,5.667 		"/>
		<polygon style="fill:#2FA2D6;" points="0.589,5.667 0,6.357 0,6.611 1.834,6.611 2.641,5.667 		"/>
		<polygon style="fill:#33ABE3;" points="0,5.667 0,6.357 0.589,5.667 		"/>
		<polygon style="fill:#0076BD;" points="25,4.722 23.961,4.722 23.154,5.667 25,5.667 		"/>
		<polygon style="fill:#1492CF;" points="21.103,5.667 23.154,5.667 23.961,4.722 21.909,4.722 		"/>
		<polygon style="fill:#002B71;" points="19.052,5.667 21.103,5.667 21.909,4.722 19.858,4.722 		"/>
		<polygon style="fill:#002261;" points="17,5.667 19.052,5.667 19.858,4.722 17.807,4.722 		"/>
		<polygon style="fill:#0058A6;" points="14.949,5.667 17,5.667 17.807,4.722 15.755,4.722 		"/>
		<polygon style="fill:#002260;" points="12.898,5.667 14.949,5.667 15.755,4.722 13.704,4.722 		"/>
		<polygon style="fill:#004287;" points="10.846,5.667 12.898,5.667 13.704,4.722 11.653,4.722 		"/>
		<polygon style="fill:#005099;" points="8.795,5.667 10.846,5.667 11.653,4.722 9.601,4.722 		"/>
		<polygon style="fill:#003C87;" points="6.743,5.667 8.795,5.667 9.601,4.722 7.55,4.722 		"/>
		<polygon style="fill:#0056A2;" points="4.692,5.667 6.743,5.667 7.55,4.722 5.498,4.722 		"/>
		<polygon style="fill:#0061AB;" points="2.641,5.667 4.692,5.667 5.498,4.722 3.447,4.722 		"/>
		<polygon style="fill:#0070B8;" points="0.589,5.667 2.641,5.667 3.447,4.722 1.396,4.722 		"/>
		<polygon style="fill:#1494D2;" points="0,4.722 0,5.667 0.589,5.667 1.396,4.722 		"/>
		<polygon style="fill:#14A6DE;" points="25,3.778 24.767,3.778 23.961,4.722 25,4.722 		"/>
		<polygon style="fill:#006DB6;" points="21.909,4.722 23.961,4.722 24.767,3.778 22.716,3.778 		"/>
		<polygon style="fill:#0061A9;" points="19.858,4.722 21.909,4.722 22.716,3.778 20.664,3.778 		"/>
		<polygon style="fill:#005AAB;" points="17.807,4.722 19.858,4.722 20.664,3.778 18.613,3.778 		"/>
		<polygon style="fill:#0056A4;" points="15.755,4.722 17.807,4.722 18.613,3.778 16.562,3.778 		"/>
		<polygon style="fill:#003C87;" points="13.704,4.722 15.755,4.722 16.562,3.778 14.51,3.778 		"/>
		<polygon style="fill:#00529B;" points="11.653,4.722 13.704,4.722 14.51,3.778 12.459,3.778 		"/>
		<polygon style="fill:#0065AE;" points="9.601,4.722 11.653,4.722 12.459,3.778 10.408,3.778 		"/>
		<polygon style="fill:#007EC2;" points="7.55,4.722 9.601,4.722 10.408,3.778 8.356,3.778 		"/>
		<polygon style="fill:#0077BB;" points="5.498,4.722 7.55,4.722 8.356,3.778 6.305,3.778 		"/>
		<polygon style="fill:#0084CB;" points="3.447,4.722 5.498,4.722 6.305,3.778 4.253,3.778 		"/>
		<polygon style="fill:#006EB6;" points="1.396,4.722 3.447,4.722 4.253,3.778 2.202,3.778 		"/>
		<polygon style="fill:#0096D4;" points="0.151,3.778 0,3.954 0,4.722 1.396,4.722 2.202,3.778 		"/>
		<polygon style="fill:#14B4E7;" points="0,3.778 0,3.954 0.151,3.778 		"/>
		<polygon style="fill:#006DBB;" points="25,3.505 24.767,3.778 25,3.778 		"/>
		<polygon style="fill:#00479D;" points="25,2.833 23.522,2.833 22.716,3.778 24.767,3.778 25,3.505 		"/>
		<polygon style="fill:#0052A9;" points="20.664,3.778 22.716,3.778 23.522,2.833 21.471,2.833 		"/>
		<polygon style="fill:#005AAB;" points="18.613,3.778 20.664,3.778 21.471,2.833 19.419,2.833 		"/>
		<polygon style="fill:#003C92;" points="16.562,3.778 18.613,3.778 19.419,2.833 17.368,2.833 		"/>
		<polygon style="fill:#004297;" points="14.51,3.778 16.562,3.778 17.368,2.833 15.317,2.833 		"/>
		<polygon style="fill:#00226B;" points="12.459,3.778 14.51,3.778 15.317,2.833 13.265,2.833 		"/>
		<polygon style="fill:#003F8F;" points="10.408,3.778 12.459,3.778 13.265,2.833 11.214,2.833 		"/>
		<polygon style="fill:#004997;" points="8.356,3.778 10.408,3.778 11.214,2.833 9.163,2.833 		"/>
		<polygon style="fill:#00499B;" points="6.305,3.778 8.356,3.778 9.163,2.833 7.111,2.833 		"/>
		<polygon style="fill:#006BBB;" points="4.253,3.778 6.305,3.778 7.111,2.833 5.06,2.833 		"/>
		<polygon style="fill:#005CAE;" points="2.202,3.778 4.253,3.778 5.06,2.833 3.008,2.833 		"/>
		<polygon style="fill:#005EB0;" points="0.151,3.778 2.202,3.778 3.008,2.833 0.957,2.833 		"/>
		<polygon style="fill:#007EC6;" points="0,2.833 0,3.778 0.151,3.778 0.957,2.833 		"/>
		<polygon style="fill:#002F92;" points="25,1.889 24.329,1.889 23.522,2.833 25,2.833 		"/>
		<polygon style="fill:#0047A6;" points="21.471,2.833 23.522,2.833 24.329,1.889 22.277,1.889 		"/>
		<polygon style="fill:#0050B0;" points="19.419,2.833 21.471,2.833 22.277,1.889 20.226,1.889 		"/>
		<polygon style="fill:#005ABD;" points="17.368,2.833 19.419,2.833 20.226,1.889 18.174,1.889 		"/>
		<polygon style="fill:#0044A4;" points="15.317,2.833 17.368,2.833 18.174,1.889 16.123,1.889 		"/>
		<polygon style="fill:#003C97;" points="13.265,2.833 15.317,2.833 16.123,1.889 14.072,1.889 		"/>
		<polygon style="fill:#007ECF;" points="11.214,2.833 13.265,2.833 14.072,1.889 12.02,1.889 		"/>
		<polygon style="fill:#004EAE;" points="9.163,2.833 11.214,2.833 12.02,1.889 9.969,1.889 		"/>
		<polygon style="fill:#0068C6;" points="7.111,2.833 9.163,2.833 9.969,1.889 7.918,1.889 		"/>
		<polygon style="fill:#004CAB;" points="5.06,2.833 7.111,2.833 7.918,1.889 5.866,1.889 		"/>
		<polygon style="fill:#005EBD;" points="3.008,2.833 5.06,2.833 5.866,1.889 3.815,1.889 		"/>
		<polygon style="fill:#004CB0;" points="0.957,2.833 3.008,2.833 3.815,1.889 1.763,1.889 		"/>
		<polygon style="fill:#0052B0;" points="0,1.889 0,2.833 0.957,2.833 1.763,1.889 		"/>
		<polygon style="fill:#002287;" points="25,1.102 24.329,1.889 25,1.889 		"/>
		<polygon style="fill:#002F99;" points="25,0.944 23.083,0.944 22.277,1.889 24.329,1.889 25,1.102 		"/>
		<polygon style="fill:#0033A2;" points="20.226,1.889 22.277,1.889 23.083,0.944 21.032,0.944 		"/>
		<polygon style="fill:#003FA8;" points="18.174,1.889 20.226,1.889 21.032,0.944 18.981,0.944 		"/>
		<polygon style="fill:#005EC2;" points="16.123,1.889 18.174,1.889 18.981,0.944 16.929,0.944 		"/>
		<polygon style="fill:#00278C;" points="14.072,1.889 16.123,1.889 16.929,0.944 14.878,0.944 		"/>
		<polygon style="fill:#004EAE;" points="12.02,1.889 14.072,1.889 14.878,0.944 12.827,0.944 		"/>
		<polygon style="fill:#0076CF;" points="9.969,1.889 12.02,1.889 12.827,0.944 10.775,0.944 		"/>
		<polygon style="fill:#0050B2;" points="7.918,1.889 9.969,1.889 10.775,0.944 8.724,0.944 		"/>
		<polygon style="fill:#0042AB;" points="5.866,1.889 7.918,1.889 8.724,0.944 6.673,0.944 		"/>
		<polygon style="fill:#0047B2;" points="3.815,1.889 5.866,1.889 6.673,0.944 4.621,0.944 		"/>
		<polygon style="fill:#003CAB;" points="1.763,1.889 3.815,1.889 4.621,0.944 2.57,0.944 		"/>
		<polygon style="fill:#0036A6;" points="0.518,0.944 0,1.552 0,1.889 1.763,1.889 2.57,0.944 		"/>
		<polygon style="fill:#004CB8;" points="0,0.944 0,1.552 0.518,0.944 		"/>
		<polygon style="fill:#001C8C;" points="25,0 23.89,0 23.083,0.944 25,0.944 		"/>
		<polygon style="fill:#001C87;" points="21.032,0.944 23.083,0.944 23.89,0 21.838,0 		"/>
		<polygon style="fill:#002BA2;" points="18.981,0.944 21.032,0.944 21.838,0 19.787,0 		"/>
		<polygon style="fill:#002FA6;" points="16.929,0.944 18.981,0.944 19.787,0 17.736,0 		"/>
		<polygon style="fill:#001471;" points="14.878,0.944 16.929,0.944 17.736,0 15.684,0 		"/>
		<polygon style="fill:#001C7F;" points="12.827,0.944 14.878,0.944 15.684,0 13.633,0 		"/>
		<polygon style="fill:#003FAB;" points="10.775,0.944 12.827,0.944 13.633,0 11.582,0 		"/>
		<polygon style="fill:#0042B6;" points="8.724,0.944 10.775,0.944 11.582,0 9.53,0 		"/>
		<polygon style="fill:#0047BB;" points="6.673,0.944 8.724,0.944 9.53,0 7.479,0 		"/>
		<polygon style="fill:#002BA2;" points="4.621,0.944 6.673,0.944 7.479,0 5.428,0 		"/>
		<polygon style="fill:#002BA4;" points="2.57,0.944 4.621,0.944 5.428,0 3.376,0 		"/>
		<polygon style="fill:#001C8C;" points="0.518,0.944 2.57,0.944 3.376,0 1.325,0 		"/>
		<polygon style="fill:#0033AB;" points="0,0 0,0.944 0.518,0.944 1.325,0 		"/>
	</g>
	<g>
		<path style="fill:#FFFFFF;" d="M0.449,17c0.292,0,0.584,0,0.876,0"/>
		<line style="fill:#FFFFFF;" x1="1.325" y1="17" x2="3.376" y2="17"/>
		<line style="fill:#FFFFFF;" x1="3.376" y1="17" x2="5.428" y2="17"/>
		<line style="fill:#FFFFFF;" x1="5.428" y1="17" x2="7.479" y2="17"/>
		<line style="fill:#FFFFFF;" x1="7.479" y1="17" x2="9.53" y2="17"/>
		<line style="fill:#FFFFFF;" x1="9.53" y1="17" x2="11.582" y2="17"/>
		<line style="fill:#FFFFFF;" x1="11.582" y1="17" x2="13.633" y2="17"/>
		<line style="fill:#FFFFFF;" x1="13.633" y1="17" x2="15.684" y2="17"/>
		<line style="fill:#FFFFFF;" x1="15.684" y1="17" x2="17.736" y2="17"/>
		<line style="fill:#FFFFFF;" x1="17.736" y1="17" x2="19.787" y2="17"/>
		<line style="fill:#FFFFFF;" x1="19.787" y1="17" x2="21.838" y2="17"/>
		<line style="fill:#FFFFFF;" x1="21.838" y1="17" x2="23.89" y2="17"/>
		<path style="fill:#FFFFFF;" d="M23.89,17c0.222,0,0.445,0,0.668,0"/>
		<polygon style="fill:#FFFFFF;" points="0,17 1.325,17 0.518,16.056 0,16.056 		"/>
		<polygon style="fill:#FFFFFF;" points="3.376,17 1.325,17 0.518,16.056 2.57,16.056 		"/>
		<polygon style="fill:#FFFFFF;" points="5.428,17 3.376,17 2.57,16.056 4.621,16.056 		"/>
		<polygon style="fill:#FFFFFF;" points="7.479,17 5.428,17 4.621,16.056 6.673,16.056 		"/>
		<polygon style="fill:#FFFFFF;" points="9.53,17 7.479,17 6.673,16.056 8.724,16.056 		"/>
		<polygon style="fill:#FFFFFF;" points="11.582,17 9.53,17 8.724,16.056 10.775,16.056 		"/>
		<polygon style="fill:#FFFFFF;" points="13.633,17 11.582,17 10.775,16.056 12.827,16.056 		"/>
		<polygon style="fill:#FFFFFF;" points="15.684,17 13.633,17 12.827,16.056 14.878,16.056 		"/>
		<polygon style="fill:#FFFFFF;" points="17.736,17 15.684,17 14.878,16.056 16.929,16.056 		"/>
		<polygon style="fill:#FFFFFF;" points="19.787,17 17.736,17 16.929,16.056 18.981,16.056 		"/>
		<polygon style="fill:#FFFFFF;" points="21.838,17 19.787,17 18.981,16.056 21.032,16.056 		"/>
		<polygon style="fill:#FFFFFF;" points="23.89,17 21.838,17 21.032,16.056 23.083,16.056 		"/>
		<polygon style="fill:#FFFFFF;" points="25,16.056 23.083,16.056 23.89,17 25,17 		"/>
		<polygon style="fill:#FFFFFF;" points="0,15.448 0,16.056 0.518,16.056 		"/>
		<polygon style="fill:#FFFFFF;" points="1.763,15.111 0,15.111 0,15.448 0.518,16.056 2.57,16.056 		"/>
		<polygon style="fill:#FFFFFF;" points="4.621,16.056 2.57,16.056 1.763,15.111 3.815,15.111 		"/>
		<polygon style="fill:#FFFFFF;" points="6.673,16.056 4.621,16.056 3.815,15.111 5.866,15.111 		"/>
		<polygon style="fill:#FFFFFF;" points="8.724,16.056 6.673,16.056 5.866,15.111 7.918,15.111 		"/>
		<polygon style="fill:#FFFFFF;" points="10.775,16.056 8.724,16.056 7.918,15.111 9.969,15.111 		"/>
		<polygon style="fill:#FFFFFF;" points="12.827,16.056 10.775,16.056 9.969,15.111 12.02,15.111 		"/>
		<polygon style="fill:#FFFFFF;" points="14.878,16.056 12.827,16.056 12.02,15.111 14.072,15.111 		"/>
		<polygon style="fill:#FFFFFF;" points="16.929,16.056 14.878,16.056 14.072,15.111 16.123,15.111 		"/>
		<polygon style="fill:#FFFFFF;" points="18.981,16.056 16.929,16.056 16.123,15.111 18.174,15.111 		"/>
		<polygon style="fill:#FFFFFF;" points="21.032,16.056 18.981,16.056 18.174,15.111 20.226,15.111 		"/>
		<polygon style="fill:#FFFFFF;" points="23.083,16.056 21.032,16.056 20.226,15.111 22.277,15.111 		"/>
		<polygon style="fill:#FFFFFF;" points="25,15.898 24.329,15.111 22.277,15.111 23.083,16.056 25,16.056 		"/>
		<polygon style="fill:#FFFFFF;" points="25,15.111 24.329,15.111 25,15.898 		"/>
		<polygon style="fill:#FFFFFF;" points="0,15.111 1.763,15.111 0.957,14.167 0,14.167 		"/>
		<polygon style="fill:#FFFFFF;" points="3.815,15.111 1.763,15.111 0.957,14.167 3.008,14.167 		"/>
		<polygon style="fill:#F2FFFF;" points="5.866,15.111 3.815,15.111 3.008,14.167 5.06,14.167 		"/>
		<polygon style="fill:#FFFFFF;" points="7.918,15.111 5.866,15.111 5.06,14.167 7.111,14.167 		"/>
		<polygon style="fill:#FFFFFF;" points="9.969,15.111 7.918,15.111 7.111,14.167 9.163,14.167 		"/>
		<polygon style="fill:#EAFFFF;" points="12.02,15.111 9.969,15.111 9.163,14.167 11.214,14.167 		"/>
		<polygon style="fill:#FFFFFF;" points="14.072,15.111 12.02,15.111 11.214,14.167 13.265,14.167 		"/>
		<polygon style="fill:#FFFFFF;" points="16.123,15.111 14.072,15.111 13.265,14.167 15.317,14.167 		"/>
		<polygon style="fill:#FFFFFF;" points="18.174,15.111 16.123,15.111 15.317,14.167 17.368,14.167 		"/>
		<polygon style="fill:#FFFFFF;" points="20.226,15.111 18.174,15.111 17.368,14.167 19.419,14.167 		"/>
		<polygon style="fill:#FFFFFF;" points="22.277,15.111 20.226,15.111 19.419,14.167 21.471,14.167 		"/>
		<polygon style="fill:#FFFFFF;" points="24.329,15.111 22.277,15.111 21.471,14.167 23.522,14.167 		"/>
		<polygon style="fill:#FFFFFF;" points="25,14.167 23.522,14.167 24.329,15.111 25,15.111 		"/>
		<polygon style="fill:#EDFFFF;" points="0,14.167 0.957,14.167 0.151,13.222 0,13.222 		"/>
		<polygon style="fill:#F4FFFF;" points="3.008,14.167 0.957,14.167 0.151,13.222 2.202,13.222 		"/>
		<polygon style="fill:#B8F2FF;" points="5.06,14.167 3.008,14.167 2.202,13.222 4.253,13.222 		"/>
		<polygon style="fill:#E5FFFF;" points="7.111,14.167 5.06,14.167 4.253,13.222 6.305,13.222 		"/>
		<polygon style="fill:#F2FFFF;" points="9.163,14.167 7.111,14.167 6.305,13.222 8.356,13.222 		"/>
		<polygon style="fill:#AEE7FF;" points="11.214,14.167 9.163,14.167 8.356,13.222 10.408,13.222 		"/>
		<polygon style="fill:#C6F2FF;" points="13.265,14.167 11.214,14.167 10.408,13.222 12.459,13.222 		"/>
		<polygon style="fill:#D4F7FF;" points="15.317,14.167 13.265,14.167 12.459,13.222 14.51,13.222 		"/>
		<polygon style="fill:#CBF7FF;" points="17.368,14.167 15.317,14.167 14.51,13.222 16.562,13.222 		"/>
		<polygon style="fill:#F7FFFF;" points="19.419,14.167 17.368,14.167 16.562,13.222 18.613,13.222 		"/>
		<polygon style="fill:#E7FFFF;" points="21.471,14.167 19.419,14.167 18.613,13.222 20.664,13.222 		"/>
		<polygon style="fill:#EFFFFF;" points="23.522,14.167 21.471,14.167 20.664,13.222 22.716,13.222 		"/>
		<polygon style="fill:#FFFFFF;" points="25,13.495 24.767,13.222 22.716,13.222 23.522,14.167 25,14.167 		"/>
		<polygon style="fill:#FFFFFF;" points="25,13.222 24.767,13.222 25,13.495 		"/>
		<polygon style="fill:#B4EFFF;" points="0,13.046 0,13.222 0.151,13.222 		"/>
		<polygon style="fill:#CBF9FF;" points="1.396,12.278 0,12.278 0,13.046 0.151,13.222 2.202,13.222 		"/>
		<polygon style="fill:#CDF7FF;" points="4.253,13.222 2.202,13.222 1.396,12.278 3.447,12.278 		"/>
		<polygon style="fill:#99DEFC;" points="6.305,13.222 4.253,13.222 3.447,12.278 5.498,12.278 		"/>
		<polygon style="fill:#A9EAFF;" points="8.356,13.222 6.305,13.222 5.498,12.278 7.55,12.278 		"/>
		<polygon style="fill:#A9E3FF;" points="10.408,13.222 8.356,13.222 7.55,12.278 9.601,12.278 		"/>
		<polygon style="fill:#70BDE7;" points="12.459,13.222 10.408,13.222 9.601,12.278 11.653,12.278 		"/>
		<polygon style="fill:#65BBE0;" points="14.51,13.222 12.459,13.222 11.653,12.278 13.704,12.278 		"/>
		<polygon style="fill:#A4E0FC;" points="16.562,13.222 14.51,13.222 13.704,12.278 15.755,12.278 		"/>
		<polygon style="fill:#AEEAFF;" points="18.613,13.222 16.562,13.222 15.755,12.278 17.807,12.278 		"/>
		<polygon style="fill:#C8F7FF;" points="20.664,13.222 18.613,13.222 17.807,12.278 19.858,12.278 		"/>
		<polygon style="fill:#CDF7FF;" points="22.716,13.222 20.664,13.222 19.858,12.278 21.909,12.278 		"/>
		<polygon style="fill:#CBF9FF;" points="24.767,13.222 22.716,13.222 21.909,12.278 23.961,12.278 		"/>
		<polygon style="fill:#EAFFFF;" points="25,12.278 23.961,12.278 24.767,13.222 25,13.222 		"/>
		<polygon style="fill:#E3FFFF;" points="0,12.278 1.396,12.278 0.589,11.333 0,11.333 		"/>
		<polygon style="fill:#FCFFFF;" points="3.447,12.278 1.396,12.278 0.589,11.333 2.641,11.333 		"/>
		<polygon style="fill:#E0FFFF;" points="5.498,12.278 3.447,12.278 2.641,11.333 4.692,11.333 		"/>
		<polygon style="fill:#D2FCFF;" points="7.55,12.278 5.498,12.278 4.692,11.333 6.743,11.333 		"/>
		<polygon style="fill:#6ABFEA;" points="9.601,12.278 7.55,12.278 6.743,11.333 8.795,11.333 		"/>
		<polygon style="fill:#60B6E3;" points="11.653,12.278 9.601,12.278 8.795,11.333 10.846,11.333 		"/>
		<polygon style="fill:#A0E0FC;" points="13.704,12.278 11.653,12.278 10.846,11.333 12.898,11.333 		"/>
		<polygon style="fill:#84D4F4;" points="15.755,12.278 13.704,12.278 12.898,11.333 14.949,11.333 		"/>
		<polygon style="fill:#96DBF9;" points="17.807,12.278 15.755,12.278 14.949,11.333 17,11.333 		"/>
		<polygon style="fill:#A2E3FF;" points="19.858,12.278 17.807,12.278 17,11.333 19.052,11.333 		"/>
		<polygon style="fill:#CBF7FF;" points="21.909,12.278 19.858,12.278 19.052,11.333 21.103,11.333 		"/>
		<polygon style="fill:#EAFFFF;" points="23.961,12.278 21.909,12.278 21.103,11.333 23.154,11.333 		"/>
		<polygon style="fill:#C3F4FF;" points="25,11.333 23.154,11.333 23.961,12.278 25,12.278 		"/>
		<polygon style="fill:#AEEDFF;" points="0,10.643 0,11.333 0.589,11.333 		"/>
		<polygon style="fill:#B8F2FF;" points="1.834,10.389 0,10.389 0,10.643 0.589,11.333 2.641,11.333 		"/>
		<polygon style="fill:#B2EFFF;" points="4.692,11.333 2.641,11.333 1.834,10.389 3.886,10.389 		"/>
		<polygon style="fill:#CBF9FF;" points="6.743,11.333 4.692,11.333 3.886,10.389 5.937,10.389 		"/>
		<polygon style="fill:#2B8BC6;" points="8.795,11.333 6.743,11.333 5.937,10.389 7.988,10.389 		"/>
		<polygon style="fill:#54B4E3;" points="10.846,11.333 8.795,11.333 7.988,10.389 10.04,10.389 		"/>
		<polygon style="fill:#47A4D6;" points="12.898,11.333 10.846,11.333 10.04,10.389 12.091,10.389 		"/>
		<polygon style="fill:#42A6D6;" points="14.949,11.333 12.898,11.333 12.091,10.389 14.142,10.389 		"/>
		<polygon style="fill:#5EB8E7;" points="17,11.333 14.949,11.333 14.142,10.389 16.194,10.389 		"/>
		<polygon style="fill:#50ABDB;" points="19.052,11.333 17,11.333 16.194,10.389 18.245,10.389 		"/>
		<polygon style="fill:#96E0F9;" points="21.103,11.333 19.052,11.333 18.245,10.389 20.297,10.389 		"/>
		<polygon style="fill:#B4EFFF;" points="23.154,11.333 21.103,11.333 20.297,10.389 22.348,10.389 		"/>
		<polygon style="fill:#8BD8FC;" points="25,11.092 24.399,10.389 22.348,10.389 23.154,11.333 25,11.333 		"/>
		<polygon style="fill:#A2E5FF;" points="25,10.389 24.399,10.389 25,11.092 		"/>
		<polygon style="fill:#C8F7FF;" points="0,10.389 1.834,10.389 1.028,9.444 0,9.444 		"/>
		<polygon style="fill:#F2FFFF;" points="3.886,10.389 1.834,10.389 1.028,9.444 3.079,9.444 		"/>
		<polygon style="fill:#B6F2FF;" points="5.937,10.389 3.886,10.389 3.079,9.444 5.131,9.444 		"/>
		<polygon style="fill:#A9EDFF;" points="7.988,10.389 5.937,10.389 5.131,9.444 7.182,9.444 		"/>
		<polygon style="fill:#3CA0D4;" points="10.04,10.389 7.988,10.389 7.182,9.444 9.233,9.444 		"/>
		<polygon style="fill:#5AB8E3;" points="12.091,10.389 10.04,10.389 9.233,9.444 11.285,9.444 		"/>
		<polygon style="fill:#8CD8FC;" points="14.142,10.389 12.091,10.389 11.285,9.444 13.336,9.444 		"/>
		<polygon style="fill:#92E3F9;" points="16.194,10.389 14.142,10.389 13.336,9.444 15.387,9.444 		"/>
		<polygon style="fill:#65C2ED;" points="18.245,10.389 16.194,10.389 15.387,9.444 17.439,9.444 		"/>
		<polygon style="fill:#97E0FC;" points="20.297,10.389 18.245,10.389 17.439,9.444 19.49,9.444 		"/>
		<polygon style="fill:#87D6F2;" points="22.348,10.389 20.297,10.389 19.49,9.444 21.542,9.444 		"/>
		<polygon style="fill:#A6EAFF;" points="24.399,10.389 22.348,10.389 21.542,9.444 23.593,9.444 		"/>
		<polygon style="fill:#B4F2FF;" points="25,9.444 23.593,9.444 24.399,10.389 25,10.389 		"/>
		<polygon style="fill:#8BD8F4;" points="0,9.444 1.028,9.444 0.222,8.5 0,8.5 		"/>
		<polygon style="fill:#C6F9FF;" points="3.079,9.444 1.028,9.444 0.222,8.5 2.273,8.5 		"/>
		<polygon style="fill:#EDFFFF;" points="5.131,9.444 3.079,9.444 2.273,8.5 4.324,8.5 		"/>
		<polygon style="fill:#96E7FF;" points="7.182,9.444 5.131,9.444 4.324,8.5 6.376,8.5 		"/>
		<polygon style="fill:#1C79BB;" points="9.233,9.444 7.182,9.444 6.376,8.5 8.427,8.5 		"/>
		<polygon style="fill:#2787C3;" points="11.285,9.444 9.233,9.444 8.427,8.5 10.478,8.5 		"/>
		<polygon style="fill:#3FA0D2;" points="13.336,9.444 11.285,9.444 10.478,8.5 12.53,8.5 		"/>
		<polygon style="fill:#7FD6F4;" points="15.387,9.444 13.336,9.444 12.53,8.5 14.581,8.5 		"/>
		<polygon style="fill:#63BFE7;" points="17.439,9.444 15.387,9.444 14.581,8.5 16.632,8.5 		"/>
		<polygon style="fill:#52B6E3;" points="19.49,9.444 17.439,9.444 16.632,8.5 18.684,8.5 		"/>
		<polygon style="fill:#84D8F7;" points="21.542,9.444 19.49,9.444 18.684,8.5 20.735,8.5 		"/>
		<polygon style="fill:#54B6E5;" points="23.593,9.444 21.542,9.444 20.735,8.5 22.787,8.5 		"/>
		<polygon style="fill:#97E5FC;" points="25,8.69 24.838,8.5 22.787,8.5 23.593,9.444 25,9.444 		"/>
		<polygon style="fill:#B0EFFF;" points="25,8.5 24.838,8.5 25,8.69 		"/>
		<polygon style="fill:#44ABDE;" points="0,8.241 0,8.5 0.222,8.5 		"/>
		<polygon style="fill:#88DEFC;" points="1.467,7.556 0,7.556 0,8.241 0.222,8.5 2.273,8.5 		"/>
		<polygon style="fill:#A0EDFF;" points="4.324,8.5 2.273,8.5 1.467,7.556 3.518,7.556 		"/>
		<polygon style="fill:#52B6E5;" points="6.376,8.5 4.324,8.5 3.518,7.556 5.569,7.556 		"/>
		<polygon style="fill:#1C83C3;" points="8.427,8.5 6.376,8.5 5.569,7.556 7.621,7.556 		"/>
		<polygon style="fill:#00529B;" points="10.478,8.5 8.427,8.5 7.621,7.556 9.672,7.556 		"/>
		<polygon style="fill:#2284C3;" points="12.53,8.5 10.478,8.5 9.672,7.556 11.723,7.556 		"/>
		<polygon style="fill:#2284C3;" points="14.581,8.5 12.53,8.5 11.723,7.556 13.775,7.556 		"/>
		<polygon style="fill:#2787C3;" points="16.632,8.5 14.581,8.5 13.775,7.556 15.826,7.556 		"/>
		<polygon style="fill:#2284C6;" points="18.684,8.5 16.632,8.5 15.826,7.556 17.878,7.556 		"/>
		<polygon style="fill:#3CA6D8;" points="20.735,8.5 18.684,8.5 17.878,7.556 19.929,7.556 		"/>
		<polygon style="fill:#44B2E3;" points="22.787,8.5 20.735,8.5 19.929,7.556 21.98,7.556 		"/>
		<polygon style="fill:#42ABE0;" points="24.838,8.5 22.787,8.5 21.98,7.556 24.032,7.556 		"/>
		<polygon style="fill:#79D6F7;" points="25,7.556 24.032,7.556 24.838,8.5 25,8.5 		"/>
		<polygon style="fill:#65CDF7;" points="0,7.556 1.467,7.556 0.66,6.611 0,6.611 		"/>
		<polygon style="fill:#76D6F9;" points="3.518,7.556 1.467,7.556 0.66,6.611 2.712,6.611 		"/>
		<polygon style="fill:#3FA9E0;" points="5.569,7.556 3.518,7.556 2.712,6.611 4.763,6.611 		"/>
		<polygon style="fill:#1473B6;" points="7.621,7.556 5.569,7.556 4.763,6.611 6.814,6.611 		"/>
		<polygon style="fill:#2B99D4;" points="9.672,7.556 7.621,7.556 6.814,6.611 8.866,6.611 		"/>
		<polygon style="fill:#2F9DD4;" points="11.723,7.556 9.672,7.556 8.866,6.611 10.917,6.611 		"/>
		<polygon style="fill:#2283C2;" points="13.775,7.556 11.723,7.556 10.917,6.611 12.968,6.611 		"/>
		<polygon style="fill:#56B8E5;" points="15.826,7.556 13.775,7.556 12.968,6.611 15.02,6.611 		"/>
		<polygon style="fill:#1473BB;" points="17.878,7.556 15.826,7.556 15.02,6.611 17.071,6.611 		"/>
		<polygon style="fill:#228FCF;" points="19.929,7.556 17.878,7.556 17.071,6.611 19.123,6.611 		"/>
		<polygon style="fill:#2B9DD6;" points="21.98,7.556 19.929,7.556 19.123,6.611 21.174,6.611 		"/>
		<polygon style="fill:#44B6E7;" points="24.032,7.556 21.98,7.556 21.174,6.611 23.225,6.611 		"/>
		<polygon style="fill:#6ACFF4;" points="25,6.611 23.225,6.611 24.032,7.556 25,7.556 		"/>
		<polygon style="fill:#2BA2D8;" points="0,5.838 0,6.611 0.66,6.611 		"/>
		<polygon style="fill:#5ECBF4;" points="1.905,5.667 0,5.667 0,5.838 0.66,6.611 2.712,6.611 		"/>
		<polygon style="fill:#33ABE0;" points="4.763,6.611 2.712,6.611 1.905,5.667 3.957,5.667 		"/>
		<polygon style="fill:#004E99;" points="6.814,6.611 4.763,6.611 3.957,5.667 6.008,5.667 		"/>
		<polygon style="fill:#005AA6;" points="8.866,6.611 6.814,6.611 6.008,5.667 8.059,5.667 		"/>
		<polygon style="fill:#002B6D;" points="10.917,6.611 8.866,6.611 8.059,5.667 10.111,5.667 		"/>
		<polygon style="fill:#278ECB;" points="12.968,6.611 10.917,6.611 10.111,5.667 12.162,5.667 		"/>
		<polygon style="fill:#227EBD;" points="15.02,6.611 12.968,6.611 12.162,5.667 14.213,5.667 		"/>
		<polygon style="fill:#1470B6;" points="17.071,6.611 15.02,6.611 14.213,5.667 16.265,5.667 		"/>
		<polygon style="fill:#006DB8;" points="19.123,6.611 17.071,6.611 16.265,5.667 18.316,5.667 		"/>
		<polygon style="fill:#0066B0;" points="21.174,6.611 19.123,6.611 18.316,5.667 20.368,5.667 		"/>
		<polygon style="fill:#1C92CD;" points="23.225,6.611 21.174,6.611 20.368,5.667 22.419,5.667 		"/>
		<polygon style="fill:#2FA2D6;" points="25,6.287 24.47,5.667 22.419,5.667 23.225,6.611 25,6.611 		"/>
		<polygon style="fill:#33ABE3;" points="25,5.667 24.47,5.667 25,6.287 		"/>
		<polygon style="fill:#0076BD;" points="0,5.667 1.905,5.667 1.099,4.722 0,4.722 		"/>
		<polygon style="fill:#1492CF;" points="3.957,5.667 1.905,5.667 1.099,4.722 3.15,4.722 		"/>
		<polygon style="fill:#002B71;" points="6.008,5.667 3.957,5.667 3.15,4.722 5.202,4.722 		"/>
		<polygon style="fill:#002261;" points="8.059,5.667 6.008,5.667 5.202,4.722 7.253,4.722 		"/>
		<polygon style="fill:#0058A6;" points="10.111,5.667 8.059,5.667 7.253,4.722 9.304,4.722 		"/>
		<polygon style="fill:#002260;" points="12.162,5.667 10.111,5.667 9.304,4.722 11.356,4.722 		"/>
		<polygon style="fill:#004287;" points="14.213,5.667 12.162,5.667 11.356,4.722 13.407,4.722 		"/>
		<polygon style="fill:#005099;" points="16.265,5.667 14.213,5.667 13.407,4.722 15.458,4.722 		"/>
		<polygon style="fill:#003C87;" points="18.316,5.667 16.265,5.667 15.458,4.722 17.51,4.722 		"/>
		<polygon style="fill:#0056A2;" points="20.368,5.667 18.316,5.667 17.51,4.722 19.561,4.722 		"/>
		<polygon style="fill:#0061AB;" points="22.419,5.667 20.368,5.667 19.561,4.722 21.613,4.722 		"/>
		<polygon style="fill:#0070B8;" points="24.47,5.667 22.419,5.667 21.613,4.722 23.664,4.722 		"/>
		<polygon style="fill:#1494D2;" points="25,4.722 23.664,4.722 24.47,5.667 25,5.667 		"/>
		<polygon style="fill:#14A6DE;" points="0,4.722 1.099,4.722 0.292,3.778 0,3.778 		"/>
		<polygon style="fill:#006DB6;" points="3.15,4.722 1.099,4.722 0.292,3.778 2.344,3.778 		"/>
		<polygon style="fill:#0061A9;" points="5.202,4.722 3.15,4.722 2.344,3.778 4.395,3.778 		"/>
		<polygon style="fill:#005AAB;" points="7.253,4.722 5.202,4.722 4.395,3.778 6.447,3.778 		"/>
		<polygon style="fill:#0056A4;" points="9.304,4.722 7.253,4.722 6.447,3.778 8.498,3.778 		"/>
		<polygon style="fill:#003C87;" points="11.356,4.722 9.304,4.722 8.498,3.778 10.549,3.778 		"/>
		<polygon style="fill:#00529B;" points="13.407,4.722 11.356,4.722 10.549,3.778 12.601,3.778 		"/>
		<polygon style="fill:#0065AE;" points="15.458,4.722 13.407,4.722 12.601,3.778 14.652,3.778 		"/>
		<polygon style="fill:#007EC2;" points="17.51,4.722 15.458,4.722 14.652,3.778 16.703,3.778 		"/>
		<polygon style="fill:#0077BB;" points="19.561,4.722 17.51,4.722 16.703,3.778 18.755,3.778 		"/>
		<polygon style="fill:#0084CB;" points="21.613,4.722 19.561,4.722 18.755,3.778 20.806,3.778 		"/>
		<polygon style="fill:#006EB6;" points="23.664,4.722 21.613,4.722 20.806,3.778 22.858,3.778 		"/>
		<polygon style="fill:#0096D4;" points="25,3.884 24.909,3.778 22.858,3.778 23.664,4.722 25,4.722 		"/>
		<polygon style="fill:#14B4E7;" points="25,3.778 24.909,3.778 25,3.884 		"/>
		<polygon style="fill:#006DBB;" points="0,3.435 0,3.778 0.292,3.778 		"/>
		<polygon style="fill:#00479D;" points="1.537,2.833 0,2.833 0,3.435 0.292,3.778 2.344,3.778 		"/>
		<polygon style="fill:#0052A9;" points="4.395,3.778 2.344,3.778 1.537,2.833 3.589,2.833 		"/>
		<polygon style="fill:#005AAB;" points="6.447,3.778 4.395,3.778 3.589,2.833 5.64,2.833 		"/>
		<polygon style="fill:#003C92;" points="8.498,3.778 6.447,3.778 5.64,2.833 7.692,2.833 		"/>
		<polygon style="fill:#004297;" points="10.549,3.778 8.498,3.778 7.692,2.833 9.743,2.833 		"/>
		<polygon style="fill:#00226B;" points="12.601,3.778 10.549,3.778 9.743,2.833 11.794,2.833 		"/>
		<polygon style="fill:#003F8F;" points="14.652,3.778 12.601,3.778 11.794,2.833 13.846,2.833 		"/>
		<polygon style="fill:#004997;" points="16.703,3.778 14.652,3.778 13.846,2.833 15.897,2.833 		"/>
		<polygon style="fill:#00499B;" points="18.755,3.778 16.703,3.778 15.897,2.833 17.948,2.833 		"/>
		<polygon style="fill:#006BBB;" points="20.806,3.778 18.755,3.778 17.948,2.833 20,2.833 		"/>
		<polygon style="fill:#005CAE;" points="22.858,3.778 20.806,3.778 20,2.833 22.051,2.833 		"/>
		<polygon style="fill:#005EB0;" points="24.909,3.778 22.858,3.778 22.051,2.833 24.103,2.833 		"/>
		<polygon style="fill:#007EC6;" points="25,2.833 24.103,2.833 24.909,3.778 25,3.778 		"/>
		<polygon style="fill:#002F92;" points="0,2.833 1.537,2.833 0.731,1.889 0,1.889 		"/>
		<polygon style="fill:#0047A6;" points="3.589,2.833 1.537,2.833 0.731,1.889 2.782,1.889 		"/>
		<polygon style="fill:#0050B0;" points="5.64,2.833 3.589,2.833 2.782,1.889 4.834,1.889 		"/>
		<polygon style="fill:#005ABD;" points="7.692,2.833 5.64,2.833 4.834,1.889 6.885,1.889 		"/>
		<polygon style="fill:#0044A4;" points="9.743,2.833 7.692,2.833 6.885,1.889 8.937,1.889 		"/>
		<polygon style="fill:#003C97;" points="11.794,2.833 9.743,2.833 8.937,1.889 10.988,1.889 		"/>
		<polygon style="fill:#007ECF;" points="13.846,2.833 11.794,2.833 10.988,1.889 13.039,1.889 		"/>
		<polygon style="fill:#004EAE;" points="15.897,2.833 13.846,2.833 13.039,1.889 15.091,1.889 		"/>
		<polygon style="fill:#0068C6;" points="17.948,2.833 15.897,2.833 15.091,1.889 17.142,1.889 		"/>
		<polygon style="fill:#004CAB;" points="20,2.833 17.948,2.833 17.142,1.889 19.194,1.889 		"/>
		<polygon style="fill:#005EBD;" points="22.051,2.833 20,2.833 19.194,1.889 21.245,1.889 		"/>
		<polygon style="fill:#004CB0;" points="24.103,2.833 22.051,2.833 21.245,1.889 23.296,1.889 		"/>
		<polygon style="fill:#0052B0;" points="25,1.889 23.296,1.889 24.103,2.833 25,2.833 		"/>
		<polygon style="fill:#002287;" points="0,1.033 0,1.889 0.731,1.889 		"/>
		<polygon style="fill:#002F99;" points="1.976,0.944 0,0.944 0,1.033 0.731,1.889 2.782,1.889 		"/>
		<polygon style="fill:#0033A2;" points="4.834,1.889 2.782,1.889 1.976,0.944 4.027,0.944 		"/>
		<polygon style="fill:#003FA8;" points="6.885,1.889 4.834,1.889 4.027,0.944 6.079,0.944 		"/>
		<polygon style="fill:#005EC2;" points="8.937,1.889 6.885,1.889 6.079,0.944 8.13,0.944 		"/>
		<polygon style="fill:#00278C;" points="10.988,1.889 8.937,1.889 8.13,0.944 10.182,0.944 		"/>
		<polygon style="fill:#004EAE;" points="13.039,1.889 10.988,1.889 10.182,0.944 12.233,0.944 		"/>
		<polygon style="fill:#0076CF;" points="15.091,1.889 13.039,1.889 12.233,0.944 14.284,0.944 		"/>
		<polygon style="fill:#0050B2;" points="17.142,1.889 15.091,1.889 14.284,0.944 16.336,0.944 		"/>
		<polygon style="fill:#0042AB;" points="19.194,1.889 17.142,1.889 16.336,0.944 18.387,0.944 		"/>
		<polygon style="fill:#0047B2;" points="21.245,1.889 19.194,1.889 18.387,0.944 20.438,0.944 		"/>
		<polygon style="fill:#003CAB;" points="23.296,1.889 21.245,1.889 20.438,0.944 22.49,0.944 		"/>
		<polygon style="fill:#0036A6;" points="25,1.482 24.541,0.944 22.49,0.944 23.296,1.889 25,1.889 		"/>
		<polygon style="fill:#004CB8;" points="25,0.944 24.541,0.944 25,1.482 		"/>
		<polygon style="fill:#001C8C;" points="0,0.944 1.976,0.944 1.17,0 0,0 		"/>
		<polygon style="fill:#001C87;" points="4.027,0.944 1.976,0.944 1.17,0 3.221,0 		"/>
		<polygon style="fill:#002BA2;" points="6.079,0.944 4.027,0.944 3.221,0 5.272,0 		"/>
		<polygon style="fill:#002FA6;" points="8.13,0.944 6.079,0.944 5.272,0 7.324,0 		"/>
		<polygon style="fill:#001471;" points="10.182,0.944 8.13,0.944 7.324,0 9.375,0 		"/>
		<polygon style="fill:#001C7F;" points="12.233,0.944 10.182,0.944 9.375,0 11.427,0 		"/>
		<polygon style="fill:#003FAB;" points="14.284,0.944 12.233,0.944 11.427,0 13.478,0 		"/>
		<polygon style="fill:#0042B6;" points="16.336,0.944 14.284,0.944 13.478,0 15.529,0 		"/>
		<polygon style="fill:#0047BB;" points="18.387,0.944 16.336,0.944 15.529,0 17.581,0 		"/>
		<polygon style="fill:#002BA2;" points="20.438,0.944 18.387,0.944 17.581,0 19.632,0 		"/>
		<polygon style="fill:#002BA4;" points="22.49,0.944 20.438,0.944 19.632,0 21.684,0 		"/>
		<polygon style="fill:#001C8C;" points="24.541,0.944 22.49,0.944 21.684,0 23.735,0 		"/>
		<polygon style="fill:#0033AB;" points="25,0 23.735,0 24.541,0.944 25,0.944 		"/>
	</g>
	<g>
		<path style="fill:#FFFFFF;" d="M24.551,17c-0.292,0-0.584,0-0.876,0"/>
		<line style="fill:#FFFFFF;" x1="23.675" y1="17" x2="21.624" y2="17"/>
		<line style="fill:#FFFFFF;" x1="21.624" y1="17" x2="19.573" y2="17"/>
		<line style="fill:#FFFFFF;" x1="19.573" y1="17" x2="17.521" y2="17"/>
		<line style="fill:#FFFFFF;" x1="17.521" y1="17" x2="15.47" y2="17"/>
		<line style="fill:#FFFFFF;" x1="15.47" y1="17" x2="13.418" y2="17"/>
		<line style="fill:#FFFFFF;" x1="13.418" y1="17" x2="11.367" y2="17"/>
		<line style="fill:#FFFFFF;" x1="11.367" y1="17" x2="9.316" y2="17"/>
		<line style="fill:#FFFFFF;" x1="9.316" y1="17" x2="7.264" y2="17"/>
		<line style="fill:#FFFFFF;" x1="7.264" y1="17" x2="5.213" y2="17"/>
		<line style="fill:#FFFFFF;" x1="5.213" y1="17" x2="3.161" y2="17"/>
		<line style="fill:#FFFFFF;" x1="3.161" y1="17" x2="1.11" y2="17"/>
		<path style="fill:#FFFFFF;" d="M1.11,17c-0.223,0-0.445,0-0.668,0"/>
		<polygon style="fill:#FFFFFF;" points="25,17 23.675,17 24.482,16.056 25,16.056 		"/>
		<polygon style="fill:#FFFFFF;" points="21.624,17 23.675,17 24.482,16.056 22.43,16.056 		"/>
		<polygon style="fill:#FFFFFF;" points="19.573,17 21.624,17 22.43,16.056 20.379,16.056 		"/>
		<polygon style="fill:#FFFFFF;" points="17.521,17 19.573,17 20.379,16.056 18.327,16.056 		"/>
		<polygon style="fill:#FFFFFF;" points="15.47,17 17.521,17 18.327,16.056 16.276,16.056 		"/>
		<polygon style="fill:#FFFFFF;" points="13.418,17 15.47,17 16.276,16.056 14.225,16.056 		"/>
		<polygon style="fill:#FFFFFF;" points="11.367,17 13.418,17 14.225,16.056 12.173,16.056 		"/>
		<polygon style="fill:#FFFFFF;" points="9.316,17 11.367,17 12.173,16.056 10.122,16.056 		"/>
		<polygon style="fill:#FFFFFF;" points="7.264,17 9.316,17 10.122,16.056 8.071,16.056 		"/>
		<polygon style="fill:#FFFFFF;" points="5.213,17 7.264,17 8.071,16.056 6.019,16.056 		"/>
		<polygon style="fill:#FFFFFF;" points="3.161,17 5.213,17 6.019,16.056 3.968,16.056 		"/>
		<polygon style="fill:#FFFFFF;" points="1.11,17 3.161,17 3.968,16.056 1.916,16.056 		"/>
		<polygon style="fill:#FFFFFF;" points="0,16.056 1.916,16.056 1.11,17 0,17 		"/>
		<polygon style="fill:#FFFFFF;" points="25,15.448 25,16.056 24.482,16.056 		"/>
		<polygon style="fill:#FFFFFF;" points="23.237,15.111 25,15.111 25,15.448 24.482,16.056 22.43,16.056 		"/>
		<polygon style="fill:#FFFFFF;" points="20.379,16.056 22.43,16.056 23.237,15.111 21.185,15.111 		"/>
		<polygon style="fill:#FFFFFF;" points="18.327,16.056 20.379,16.056 21.185,15.111 19.134,15.111 		"/>
		<polygon style="fill:#FFFFFF;" points="16.276,16.056 18.327,16.056 19.134,15.111 17.083,15.111 		"/>
		<polygon style="fill:#FFFFFF;" points="14.225,16.056 16.276,16.056 17.083,15.111 15.031,15.111 		"/>
		<polygon style="fill:#FFFFFF;" points="12.173,16.056 14.225,16.056 15.031,15.111 12.98,15.111 		"/>
		<polygon style="fill:#FFFFFF;" points="10.122,16.056 12.173,16.056 12.98,15.111 10.928,15.111 		"/>
		<polygon style="fill:#FFFFFF;" points="8.071,16.056 10.122,16.056 10.928,15.111 8.877,15.111 		"/>
		<polygon style="fill:#FFFFFF;" points="6.019,16.056 8.071,16.056 8.877,15.111 6.826,15.111 		"/>
		<polygon style="fill:#FFFFFF;" points="3.968,16.056 6.019,16.056 6.826,15.111 4.774,15.111 		"/>
		<polygon style="fill:#FFFFFF;" points="1.916,16.056 3.968,16.056 4.774,15.111 2.723,15.111 		"/>
		<polygon style="fill:#FFFFFF;" points="0,15.898 0.671,15.111 2.723,15.111 1.916,16.056 0,16.056 		"/>
		<polygon style="fill:#FFFFFF;" points="0,15.111 0.671,15.111 0,15.898 		"/>
		<polygon style="fill:#FFFFFF;" points="25,15.111 23.237,15.111 24.043,14.167 25,14.167 		"/>
		<polygon style="fill:#FFFFFF;" points="21.185,15.111 23.237,15.111 24.043,14.167 21.992,14.167 		"/>
		<polygon style="fill:#F2FFFF;" points="19.134,15.111 21.185,15.111 21.992,14.167 19.94,14.167 		"/>
		<polygon style="fill:#FFFFFF;" points="17.083,15.111 19.134,15.111 19.94,14.167 17.889,14.167 		"/>
		<polygon style="fill:#FFFFFF;" points="15.031,15.111 17.083,15.111 17.889,14.167 15.837,14.167 		"/>
		<polygon style="fill:#EAFFFF;" points="12.98,15.111 15.031,15.111 15.837,14.167 13.786,14.167 		"/>
		<polygon style="fill:#FFFFFF;" points="10.928,15.111 12.98,15.111 13.786,14.167 11.735,14.167 		"/>
		<polygon style="fill:#FFFFFF;" points="8.877,15.111 10.928,15.111 11.735,14.167 9.683,14.167 		"/>
		<polygon style="fill:#FFFFFF;" points="6.826,15.111 8.877,15.111 9.683,14.167 7.632,14.167 		"/>
		<polygon style="fill:#FFFFFF;" points="4.774,15.111 6.826,15.111 7.632,14.167 5.581,14.167 		"/>
		<polygon style="fill:#FFFFFF;" points="2.723,15.111 4.774,15.111 5.581,14.167 3.529,14.167 		"/>
		<polygon style="fill:#FFFFFF;" points="0.671,15.111 2.723,15.111 3.529,14.167 1.478,14.167 		"/>
		<polygon style="fill:#FFFFFF;" points="0,14.167 1.478,14.167 0.671,15.111 0,15.111 		"/>
		<polygon style="fill:#EDFFFF;" points="25,14.167 24.043,14.167 24.849,13.222 25,13.222 		"/>
		<polygon style="fill:#F4FFFF;" points="21.992,14.167 24.043,14.167 24.849,13.222 22.798,13.222 		"/>
		<polygon style="fill:#B8F2FF;" points="19.94,14.167 21.992,14.167 22.798,13.222 20.747,13.222 		"/>
		<polygon style="fill:#E5FFFF;" points="17.889,14.167 19.94,14.167 20.747,13.222 18.695,13.222 		"/>
		<polygon style="fill:#F2FFFF;" points="15.837,14.167 17.889,14.167 18.695,13.222 16.644,13.222 		"/>
		<polygon style="fill:#AEE7FF;" points="13.786,14.167 15.837,14.167 16.644,13.222 14.592,13.222 		"/>
		<polygon style="fill:#C6F2FF;" points="11.735,14.167 13.786,14.167 14.592,13.222 12.541,13.222 		"/>
		<polygon style="fill:#D4F7FF;" points="9.683,14.167 11.735,14.167 12.541,13.222 10.49,13.222 		"/>
		<polygon style="fill:#CBF7FF;" points="7.632,14.167 9.683,14.167 10.49,13.222 8.438,13.222 		"/>
		<polygon style="fill:#F7FFFF;" points="5.581,14.167 7.632,14.167 8.438,13.222 6.387,13.222 		"/>
		<polygon style="fill:#E7FFFF;" points="3.529,14.167 5.581,14.167 6.387,13.222 4.336,13.222 		"/>
		<polygon style="fill:#EFFFFF;" points="1.478,14.167 3.529,14.167 4.336,13.222 2.284,13.222 		"/>
		<polygon style="fill:#FFFFFF;" points="0,13.495 0.233,13.222 2.284,13.222 1.478,14.167 0,14.167 		"/>
		<polygon style="fill:#FFFFFF;" points="0,13.222 0.233,13.222 0,13.495 		"/>
		<polygon style="fill:#B4EFFF;" points="25,13.046 25,13.222 24.849,13.222 		"/>
		<polygon style="fill:#CBF9FF;" points="23.604,12.278 25,12.278 25,13.046 24.849,13.222 22.798,13.222 		"/>
		<polygon style="fill:#CDF7FF;" points="20.747,13.222 22.798,13.222 23.604,12.278 21.553,12.278 		"/>
		<polygon style="fill:#99DEFC;" points="18.695,13.222 20.747,13.222 21.553,12.278 19.502,12.278 		"/>
		<polygon style="fill:#A9EAFF;" points="16.644,13.222 18.695,13.222 19.502,12.278 17.45,12.278 		"/>
		<polygon style="fill:#A9E3FF;" points="14.592,13.222 16.644,13.222 17.45,12.278 15.399,12.278 		"/>
		<polygon style="fill:#70BDE7;" points="12.541,13.222 14.592,13.222 15.399,12.278 13.347,12.278 		"/>
		<polygon style="fill:#65BBE0;" points="10.49,13.222 12.541,13.222 13.347,12.278 11.296,12.278 		"/>
		<polygon style="fill:#A4E0FC;" points="8.438,13.222 10.49,13.222 11.296,12.278 9.245,12.278 		"/>
		<polygon style="fill:#AEEAFF;" points="6.387,13.222 8.438,13.222 9.245,12.278 7.193,12.278 		"/>
		<polygon style="fill:#C8F7FF;" points="4.336,13.222 6.387,13.222 7.193,12.278 5.142,12.278 		"/>
		<polygon style="fill:#CDF7FF;" points="2.284,13.222 4.336,13.222 5.142,12.278 3.091,12.278 		"/>
		<polygon style="fill:#CBF9FF;" points="0.233,13.222 2.284,13.222 3.091,12.278 1.039,12.278 		"/>
		<polygon style="fill:#EAFFFF;" points="0,12.278 1.039,12.278 0.233,13.222 0,13.222 		"/>
		<polygon style="fill:#E3FFFF;" points="25,12.278 23.604,12.278 24.411,11.333 25,11.333 		"/>
		<polygon style="fill:#FCFFFF;" points="21.553,12.278 23.604,12.278 24.411,11.333 22.359,11.333 		"/>
		<polygon style="fill:#E0FFFF;" points="19.502,12.278 21.553,12.278 22.359,11.333 20.308,11.333 		"/>
		<polygon style="fill:#D2FCFF;" points="17.45,12.278 19.502,12.278 20.308,11.333 18.257,11.333 		"/>
		<polygon style="fill:#6ABFEA;" points="15.399,12.278 17.45,12.278 18.257,11.333 16.205,11.333 		"/>
		<polygon style="fill:#60B6E3;" points="13.347,12.278 15.399,12.278 16.205,11.333 14.154,11.333 		"/>
		<polygon style="fill:#A0E0FC;" points="11.296,12.278 13.347,12.278 14.154,11.333 12.102,11.333 		"/>
		<polygon style="fill:#84D4F4;" points="9.245,12.278 11.296,12.278 12.102,11.333 10.051,11.333 		"/>
		<polygon style="fill:#96DBF9;" points="7.193,12.278 9.245,12.278 10.051,11.333 8,11.333 		"/>
		<polygon style="fill:#A2E3FF;" points="5.142,12.278 7.193,12.278 8,11.333 5.948,11.333 		"/>
		<polygon style="fill:#CBF7FF;" points="3.091,12.278 5.142,12.278 5.948,11.333 3.897,11.333 		"/>
		<polygon style="fill:#EAFFFF;" points="1.039,12.278 3.091,12.278 3.897,11.333 1.846,11.333 		"/>
		<polygon style="fill:#C3F4FF;" points="0,11.333 1.846,11.333 1.039,12.278 0,12.278 		"/>
		<polygon style="fill:#AEEDFF;" points="25,10.643 25,11.333 24.411,11.333 		"/>
		<polygon style="fill:#B8F2FF;" points="23.166,10.389 25,10.389 25,10.643 24.411,11.333 22.359,11.333 		"/>
		<polygon style="fill:#B2EFFF;" points="20.308,11.333 22.359,11.333 23.166,10.389 21.114,10.389 		"/>
		<polygon style="fill:#CBF9FF;" points="18.257,11.333 20.308,11.333 21.114,10.389 19.063,10.389 		"/>
		<polygon style="fill:#2B8BC6;" points="16.205,11.333 18.257,11.333 19.063,10.389 17.012,10.389 		"/>
		<polygon style="fill:#54B4E3;" points="14.154,11.333 16.205,11.333 17.012,10.389 14.96,10.389 		"/>
		<polygon style="fill:#47A4D6;" points="12.102,11.333 14.154,11.333 14.96,10.389 12.909,10.389 		"/>
		<polygon style="fill:#42A6D6;" points="10.051,11.333 12.102,11.333 12.909,10.389 10.858,10.389 		"/>
		<polygon style="fill:#5EB8E7;" points="8,11.333 10.051,11.333 10.858,10.389 8.806,10.389 		"/>
		<polygon style="fill:#50ABDB;" points="5.948,11.333 8,11.333 8.806,10.389 6.755,10.389 		"/>
		<polygon style="fill:#96E0F9;" points="3.897,11.333 5.948,11.333 6.755,10.389 4.703,10.389 		"/>
		<polygon style="fill:#B4EFFF;" points="1.846,11.333 3.897,11.333 4.703,10.389 2.652,10.389 		"/>
		<polygon style="fill:#8BD8FC;" points="0,11.092 0.601,10.389 2.652,10.389 1.846,11.333 0,11.333 		"/>
		<polygon style="fill:#A2E5FF;" points="0,10.389 0.601,10.389 0,11.092 		"/>
		<polygon style="fill:#C8F7FF;" points="25,10.389 23.166,10.389 23.972,9.444 25,9.444 		"/>
		<polygon style="fill:#F2FFFF;" points="21.114,10.389 23.166,10.389 23.972,9.444 21.921,9.444 		"/>
		<polygon style="fill:#B6F2FF;" points="19.063,10.389 21.114,10.389 21.921,9.444 19.869,9.444 		"/>
		<polygon style="fill:#A9EDFF;" points="17.012,10.389 19.063,10.389 19.869,9.444 17.818,9.444 		"/>
		<polygon style="fill:#3CA0D4;" points="14.96,10.389 17.012,10.389 17.818,9.444 15.767,9.444 		"/>
		<polygon style="fill:#5AB8E3;" points="12.909,10.389 14.96,10.389 15.767,9.444 13.715,9.444 		"/>
		<polygon style="fill:#8CD8FC;" points="10.858,10.389 12.909,10.389 13.715,9.444 11.664,9.444 		"/>
		<polygon style="fill:#92E3F9;" points="8.806,10.389 10.858,10.389 11.664,9.444 9.612,9.444 		"/>
		<polygon style="fill:#65C2ED;" points="6.755,10.389 8.806,10.389 9.612,9.444 7.561,9.444 		"/>
		<polygon style="fill:#97E0FC;" points="4.703,10.389 6.755,10.389 7.561,9.444 5.51,9.444 		"/>
		<polygon style="fill:#87D6F2;" points="2.652,10.389 4.703,10.389 5.51,9.444 3.458,9.444 		"/>
		<polygon style="fill:#A6EAFF;" points="0.601,10.389 2.652,10.389 3.458,9.444 1.407,9.444 		"/>
		<polygon style="fill:#B4F2FF;" points="0,9.444 1.407,9.444 0.601,10.389 0,10.389 		"/>
		<polygon style="fill:#8BD8F4;" points="25,9.444 23.972,9.444 24.778,8.5 25,8.5 		"/>
		<polygon style="fill:#C6F9FF;" points="21.921,9.444 23.972,9.444 24.778,8.5 22.727,8.5 		"/>
		<polygon style="fill:#EDFFFF;" points="19.869,9.444 21.921,9.444 22.727,8.5 20.676,8.5 		"/>
		<polygon style="fill:#96E7FF;" points="17.818,9.444 19.869,9.444 20.676,8.5 18.624,8.5 		"/>
		<polygon style="fill:#1C79BB;" points="15.767,9.444 17.818,9.444 18.624,8.5 16.573,8.5 		"/>
		<polygon style="fill:#2787C3;" points="13.715,9.444 15.767,9.444 16.573,8.5 14.522,8.5 		"/>
		<polygon style="fill:#3FA0D2;" points="11.664,9.444 13.715,9.444 14.522,8.5 12.47,8.5 		"/>
		<polygon style="fill:#7FD6F4;" points="9.612,9.444 11.664,9.444 12.47,8.5 10.419,8.5 		"/>
		<polygon style="fill:#63BFE7;" points="7.561,9.444 9.612,9.444 10.419,8.5 8.367,8.5 		"/>
		<polygon style="fill:#52B6E3;" points="5.51,9.444 7.561,9.444 8.367,8.5 6.316,8.5 		"/>
		<polygon style="fill:#84D8F7;" points="3.458,9.444 5.51,9.444 6.316,8.5 4.265,8.5 		"/>
		<polygon style="fill:#54B6E5;" points="1.407,9.444 3.458,9.444 4.265,8.5 2.213,8.5 		"/>
		<polygon style="fill:#97E5FC;" points="0,8.69 0.162,8.5 2.213,8.5 1.407,9.444 0,9.444 		"/>
		<polygon style="fill:#B0EFFF;" points="0,8.5 0.162,8.5 0,8.69 		"/>
		<polygon style="fill:#44ABDE;" points="25,8.241 25,8.5 24.778,8.5 		"/>
		<polygon style="fill:#88DEFC;" points="23.533,7.556 25,7.556 25,8.241 24.778,8.5 22.727,8.5 		"/>
		<polygon style="fill:#A0EDFF;" points="20.676,8.5 22.727,8.5 23.533,7.556 21.482,7.556 		"/>
		<polygon style="fill:#52B6E5;" points="18.624,8.5 20.676,8.5 21.482,7.556 19.431,7.556 		"/>
		<polygon style="fill:#1C83C3;" points="16.573,8.5 18.624,8.5 19.431,7.556 17.379,7.556 		"/>
		<polygon style="fill:#00529B;" points="14.522,8.5 16.573,8.5 17.379,7.556 15.328,7.556 		"/>
		<polygon style="fill:#2284C3;" points="12.47,8.5 14.522,8.5 15.328,7.556 13.277,7.556 		"/>
		<polygon style="fill:#2284C3;" points="10.419,8.5 12.47,8.5 13.277,7.556 11.225,7.556 		"/>
		<polygon style="fill:#2787C3;" points="8.367,8.5 10.419,8.5 11.225,7.556 9.174,7.556 		"/>
		<polygon style="fill:#2284C6;" points="6.316,8.5 8.367,8.5 9.174,7.556 7.122,7.556 		"/>
		<polygon style="fill:#3CA6D8;" points="4.265,8.5 6.316,8.5 7.122,7.556 5.071,7.556 		"/>
		<polygon style="fill:#44B2E3;" points="2.213,8.5 4.265,8.5 5.071,7.556 3.02,7.556 		"/>
		<polygon style="fill:#42ABE0;" points="0.162,8.5 2.213,8.5 3.02,7.556 0.968,7.556 		"/>
		<polygon style="fill:#79D6F7;" points="0,7.556 0.968,7.556 0.162,8.5 0,8.5 		"/>
		<polygon style="fill:#65CDF7;" points="25,7.556 23.533,7.556 24.34,6.611 25,6.611 		"/>
		<polygon style="fill:#76D6F9;" points="21.482,7.556 23.533,7.556 24.34,6.611 22.288,6.611 		"/>
		<polygon style="fill:#3FA9E0;" points="19.431,7.556 21.482,7.556 22.288,6.611 20.237,6.611 		"/>
		<polygon style="fill:#1473B6;" points="17.379,7.556 19.431,7.556 20.237,6.611 18.186,6.611 		"/>
		<polygon style="fill:#2B99D4;" points="15.328,7.556 17.379,7.556 18.186,6.611 16.134,6.611 		"/>
		<polygon style="fill:#2F9DD4;" points="13.277,7.556 15.328,7.556 16.134,6.611 14.083,6.611 		"/>
		<polygon style="fill:#2283C2;" points="11.225,7.556 13.277,7.556 14.083,6.611 12.032,6.611 		"/>
		<polygon style="fill:#56B8E5;" points="9.174,7.556 11.225,7.556 12.032,6.611 9.98,6.611 		"/>
		<polygon style="fill:#1473BB;" points="7.122,7.556 9.174,7.556 9.98,6.611 7.929,6.611 		"/>
		<polygon style="fill:#228FCF;" points="5.071,7.556 7.122,7.556 7.929,6.611 5.877,6.611 		"/>
		<polygon style="fill:#2B9DD6;" points="3.02,7.556 5.071,7.556 5.877,6.611 3.826,6.611 		"/>
		<polygon style="fill:#44B6E7;" points="0.968,7.556 3.02,7.556 3.826,6.611 1.775,6.611 		"/>
		<polygon style="fill:#6ACFF4;" points="0,6.611 1.775,6.611 0.968,7.556 0,7.556 		"/>
		<polygon style="fill:#2BA2D8;" points="25,5.838 25,6.611 24.34,6.611 		"/>
		<polygon style="fill:#5ECBF4;" points="23.095,5.667 25,5.667 25,5.838 24.34,6.611 22.288,6.611 		"/>
		<polygon style="fill:#33ABE0;" points="20.237,6.611 22.288,6.611 23.095,5.667 21.043,5.667 		"/>
		<polygon style="fill:#004E99;" points="18.186,6.611 20.237,6.611 21.043,5.667 18.992,5.667 		"/>
		<polygon style="fill:#005AA6;" points="16.134,6.611 18.186,6.611 18.992,5.667 16.941,5.667 		"/>
		<polygon style="fill:#002B6D;" points="14.083,6.611 16.134,6.611 16.941,5.667 14.889,5.667 		"/>
		<polygon style="fill:#278ECB;" points="12.032,6.611 14.083,6.611 14.889,5.667 12.838,5.667 		"/>
		<polygon style="fill:#227EBD;" points="9.98,6.611 12.032,6.611 12.838,5.667 10.787,5.667 		"/>
		<polygon style="fill:#1470B6;" points="7.929,6.611 9.98,6.611 10.787,5.667 8.735,5.667 		"/>
		<polygon style="fill:#006DB8;" points="5.877,6.611 7.929,6.611 8.735,5.667 6.684,5.667 		"/>
		<polygon style="fill:#0066B0;" points="3.826,6.611 5.877,6.611 6.684,5.667 4.632,5.667 		"/>
		<polygon style="fill:#1C92CD;" points="1.775,6.611 3.826,6.611 4.632,5.667 2.581,5.667 		"/>
		<polygon style="fill:#2FA2D6;" points="0,6.287 0.53,5.667 2.581,5.667 1.775,6.611 0,6.611 		"/>
		<polygon style="fill:#33ABE3;" points="0,5.667 0.53,5.667 0,6.287 		"/>
		<polygon style="fill:#0076BD;" points="25,5.667 23.095,5.667 23.901,4.722 25,4.722 		"/>
		<polygon style="fill:#1492CF;" points="21.043,5.667 23.095,5.667 23.901,4.722 21.85,4.722 		"/>
		<polygon style="fill:#002B71;" points="18.992,5.667 21.043,5.667 21.85,4.722 19.798,4.722 		"/>
		<polygon style="fill:#002261;" points="16.941,5.667 18.992,5.667 19.798,4.722 17.747,4.722 		"/>
		<polygon style="fill:#0058A6;" points="14.889,5.667 16.941,5.667 17.747,4.722 15.696,4.722 		"/>
		<polygon style="fill:#002260;" points="12.838,5.667 14.889,5.667 15.696,4.722 13.644,4.722 		"/>
		<polygon style="fill:#004287;" points="10.787,5.667 12.838,5.667 13.644,4.722 11.593,4.722 		"/>
		<polygon style="fill:#005099;" points="8.735,5.667 10.787,5.667 11.593,4.722 9.542,4.722 		"/>
		<polygon style="fill:#003C87;" points="6.684,5.667 8.735,5.667 9.542,4.722 7.49,4.722 		"/>
		<polygon style="fill:#0056A2;" points="4.632,5.667 6.684,5.667 7.49,4.722 5.439,4.722 		"/>
		<polygon style="fill:#0061AB;" points="2.581,5.667 4.632,5.667 5.439,4.722 3.387,4.722 		"/>
		<polygon style="fill:#0070B8;" points="0.53,5.667 2.581,5.667 3.387,4.722 1.336,4.722 		"/>
		<polygon style="fill:#1494D2;" points="0,4.722 1.336,4.722 0.53,5.667 0,5.667 		"/>
		<polygon style="fill:#14A6DE;" points="25,4.722 23.901,4.722 24.708,3.778 25,3.778 		"/>
		<polygon style="fill:#006DB6;" points="21.85,4.722 23.901,4.722 24.708,3.778 22.656,3.778 		"/>
		<polygon style="fill:#0061A9;" points="19.798,4.722 21.85,4.722 22.656,3.778 20.605,3.778 		"/>
		<polygon style="fill:#005AAB;" points="17.747,4.722 19.798,4.722 20.605,3.778 18.553,3.778 		"/>
		<polygon style="fill:#0056A4;" points="15.696,4.722 17.747,4.722 18.553,3.778 16.502,3.778 		"/>
		<polygon style="fill:#003C87;" points="13.644,4.722 15.696,4.722 16.502,3.778 14.451,3.778 		"/>
		<polygon style="fill:#00529B;" points="11.593,4.722 13.644,4.722 14.451,3.778 12.399,3.778 		"/>
		<polygon style="fill:#0065AE;" points="9.542,4.722 11.593,4.722 12.399,3.778 10.348,3.778 		"/>
		<polygon style="fill:#007EC2;" points="7.49,4.722 9.542,4.722 10.348,3.778 8.297,3.778 		"/>
		<polygon style="fill:#0077BB;" points="5.439,4.722 7.49,4.722 8.297,3.778 6.245,3.778 		"/>
		<polygon style="fill:#0084CB;" points="3.387,4.722 5.439,4.722 6.245,3.778 4.194,3.778 		"/>
		<polygon style="fill:#006EB6;" points="1.336,4.722 3.387,4.722 4.194,3.778 2.142,3.778 		"/>
		<polygon style="fill:#0096D4;" points="0,3.884 0.091,3.778 2.142,3.778 1.336,4.722 0,4.722 		"/>
		<polygon style="fill:#14B4E7;" points="0,3.778 0.091,3.778 0,3.884 		"/>
		<polygon style="fill:#006DBB;" points="25,3.435 25,3.778 24.708,3.778 		"/>
		<polygon style="fill:#00479D;" points="23.462,2.833 25,2.833 25,3.435 24.708,3.778 22.656,3.778 		"/>
		<polygon style="fill:#0052A9;" points="20.605,3.778 22.656,3.778 23.462,2.833 21.411,2.833 		"/>
		<polygon style="fill:#005AAB;" points="18.553,3.778 20.605,3.778 21.411,2.833 19.36,2.833 		"/>
		<polygon style="fill:#003C92;" points="16.502,3.778 18.553,3.778 19.36,2.833 17.308,2.833 		"/>
		<polygon style="fill:#004297;" points="14.451,3.778 16.502,3.778 17.308,2.833 15.257,2.833 		"/>
		<polygon style="fill:#00226B;" points="12.399,3.778 14.451,3.778 15.257,2.833 13.206,2.833 		"/>
		<polygon style="fill:#003F8F;" points="10.348,3.778 12.399,3.778 13.206,2.833 11.154,2.833 		"/>
		<polygon style="fill:#004997;" points="8.297,3.778 10.348,3.778 11.154,2.833 9.103,2.833 		"/>
		<polygon style="fill:#00499B;" points="6.245,3.778 8.297,3.778 9.103,2.833 7.052,2.833 		"/>
		<polygon style="fill:#006BBB;" points="4.194,3.778 6.245,3.778 7.052,2.833 5,2.833 		"/>
		<polygon style="fill:#005CAE;" points="2.142,3.778 4.194,3.778 5,2.833 2.949,2.833 		"/>
		<polygon style="fill:#005EB0;" points="0.091,3.778 2.142,3.778 2.949,2.833 0.897,2.833 		"/>
		<polygon style="fill:#007EC6;" points="0,2.833 0.897,2.833 0.091,3.778 0,3.778 		"/>
		<polygon style="fill:#002F92;" points="25,2.833 23.462,2.833 24.269,1.889 25,1.889 		"/>
		<polygon style="fill:#0047A6;" points="21.411,2.833 23.462,2.833 24.269,1.889 22.218,1.889 		"/>
		<polygon style="fill:#0050B0;" points="19.36,2.833 21.411,2.833 22.218,1.889 20.166,1.889 		"/>
		<polygon style="fill:#005ABD;" points="17.308,2.833 19.36,2.833 20.166,1.889 18.115,1.889 		"/>
		<polygon style="fill:#0044A4;" points="15.257,2.833 17.308,2.833 18.115,1.889 16.063,1.889 		"/>
		<polygon style="fill:#003C97;" points="13.206,2.833 15.257,2.833 16.063,1.889 14.012,1.889 		"/>
		<polygon style="fill:#007ECF;" points="11.154,2.833 13.206,2.833 14.012,1.889 11.961,1.889 		"/>
		<polygon style="fill:#004EAE;" points="9.103,2.833 11.154,2.833 11.961,1.889 9.909,1.889 		"/>
		<polygon style="fill:#0068C6;" points="7.052,2.833 9.103,2.833 9.909,1.889 7.858,1.889 		"/>
		<polygon style="fill:#004CAB;" points="5,2.833 7.052,2.833 7.858,1.889 5.807,1.889 		"/>
		<polygon style="fill:#005EBD;" points="2.949,2.833 5,2.833 5.807,1.889 3.755,1.889 		"/>
		<polygon style="fill:#004CB0;" points="0.897,2.833 2.949,2.833 3.755,1.889 1.704,1.889 		"/>
		<polygon style="fill:#0052B0;" points="0,1.889 1.704,1.889 0.897,2.833 0,2.833 		"/>
		<polygon style="fill:#002287;" points="25,1.033 25,1.889 24.269,1.889 		"/>
		<polygon style="fill:#002F99;" points="23.024,0.944 25,0.944 25,1.033 24.269,1.889 22.218,1.889 		"/>
		<polygon style="fill:#0033A2;" points="20.166,1.889 22.218,1.889 23.024,0.944 20.972,0.944 		"/>
		<polygon style="fill:#003FA8;" points="18.115,1.889 20.166,1.889 20.972,0.944 18.921,0.944 		"/>
		<polygon style="fill:#005EC2;" points="16.063,1.889 18.115,1.889 18.921,0.944 16.87,0.944 		"/>
		<polygon style="fill:#00278C;" points="14.012,1.889 16.063,1.889 16.87,0.944 14.818,0.944 		"/>
		<polygon style="fill:#004EAE;" points="11.961,1.889 14.012,1.889 14.818,0.944 12.767,0.944 		"/>
		<polygon style="fill:#0076CF;" points="9.909,1.889 11.961,1.889 12.767,0.944 10.716,0.944 		"/>
		<polygon style="fill:#0050B2;" points="7.858,1.889 9.909,1.889 10.716,0.944 8.664,0.944 		"/>
		<polygon style="fill:#0042AB;" points="5.807,1.889 7.858,1.889 8.664,0.944 6.613,0.944 		"/>
		<polygon style="fill:#0047B2;" points="3.755,1.889 5.807,1.889 6.613,0.944 4.562,0.944 		"/>
		<polygon style="fill:#003CAB;" points="1.704,1.889 3.755,1.889 4.562,0.944 2.51,0.944 		"/>
		<polygon style="fill:#0036A6;" points="0,1.482 0.459,0.944 2.51,0.944 1.704,1.889 0,1.889 		"/>
		<polygon style="fill:#004CB8;" points="0,0.944 0.459,0.944 0,1.482 		"/>
		<polygon style="fill:#001C8C;" points="25,0.944 23.024,0.944 23.83,0 25,0 		"/>
		<polygon style="fill:#001C87;" points="20.972,0.944 23.024,0.944 23.83,0 21.779,0 		"/>
		<polygon style="fill:#002BA2;" points="18.921,0.944 20.972,0.944 21.779,0 19.728,0 		"/>
		<polygon style="fill:#002FA6;" points="16.87,0.944 18.921,0.944 19.728,0 17.676,0 		"/>
		<polygon style="fill:#001471;" points="14.818,0.944 16.87,0.944 17.676,0 15.625,0 		"/>
		<polygon style="fill:#001C7F;" points="12.767,0.944 14.818,0.944 15.625,0 13.573,0 		"/>
		<polygon style="fill:#003FAB;" points="10.716,0.944 12.767,0.944 13.573,0 11.522,0 		"/>
		<polygon style="fill:#0042B6;" points="8.664,0.944 10.716,0.944 11.522,0 9.471,0 		"/>
		<polygon style="fill:#0047BB;" points="6.613,0.944 8.664,0.944 9.471,0 7.419,0 		"/>
		<polygon style="fill:#002BA2;" points="4.562,0.944 6.613,0.944 7.419,0 5.368,0 		"/>
		<polygon style="fill:#002BA4;" points="2.51,0.944 4.562,0.944 5.368,0 3.317,0 		"/>
		<polygon style="fill:#001C8C;" points="0.459,0.944 2.51,0.944 3.317,0 1.265,0 		"/>
		<polygon style="fill:#0033AB;" points="0,0 1.265,0 0.459,0.944 0,0.944 		"/>
	</g>
</g>
</svg>
